<?xml version="1.0" encoding="UTF-8" standalone="no"?>
<!-- Created with matplotlib (http://matplotlib.org/) -->

<svg
   xmlns:dc="http://purl.org/dc/elements/1.1/"
   xmlns:cc="http://creativecommons.org/ns#"
   xmlns:rdf="http://www.w3.org/1999/02/22-rdf-syntax-ns#"
   xmlns:svg="http://www.w3.org/2000/svg"
   xmlns="http://www.w3.org/2000/svg"
   xmlns:xlink="http://www.w3.org/1999/xlink"
   xmlns:sodipodi="http://sodipodi.sourceforge.net/DTD/sodipodi-0.dtd"
   xmlns:inkscape="http://www.inkscape.org/namespaces/inkscape"
   height="1390.099pt"
   version="1.1"
   viewBox="0 0 1350 1390.099"
   width="1350pt"
   id="svg188"
   sodipodi:docname="newton.svg"
   inkscape:export-filename="/home/krishna/professional/courses/CE394M_Advanced_Analysis_Geotechnical_Engineering/Advanced_Analysis_Geotechnical_Engineering/2019_Fall/lectures/04_fem_solvers_errors/figs/newton.svg.png"
   inkscape:export-xdpi="97.860001"
   inkscape:export-ydpi="97.860001"
   inkscape:version="0.92.4 (unknown)">
  <metadata
     id="metadata192">
    <rdf:RDF>
      <cc:Work
         rdf:about="">
        <dc:format>image/svg+xml</dc:format>
        <dc:type
           rdf:resource="http://purl.org/dc/dcmitype/StillImage" />
        <dc:title></dc:title>
      </cc:Work>
    </rdf:RDF>
  </metadata>
  <sodipodi:namedview
     pagecolor="#ffffff"
     bordercolor="#666666"
     borderopacity="1"
     objecttolerance="10"
     gridtolerance="10"
     guidetolerance="10"
     inkscape:pageopacity="0"
     inkscape:pageshadow="2"
     inkscape:window-width="3840"
     inkscape:window-height="2031"
     id="namedview190"
     showgrid="false"
     inkscape:zoom="4.4814357"
     inkscape:cx="-76.468246"
     inkscape:cy="140.6732"
     inkscape:window-x="0"
     inkscape:window-y="55"
     inkscape:window-maximized="1"
     inkscape:current-layer="svg188"
     fit-margin-top="0"
     fit-margin-left="0"
     fit-margin-right="0"
     fit-margin-bottom="0" />
  <defs
     id="defs4"
     style="stroke-linecap:butt;stroke-linejoin:round">
    <style
       type="text/css"
       id="style2">
*{stroke-linecap:butt;stroke-linejoin:round;}
  </style>
  </defs>
  <g
     id="figure_1"
     transform="scale(7.4257426)"
     style="stroke-linecap:butt;stroke-linejoin:round"
     inkscape:export-xdpi="97.860001"
     inkscape:export-ydpi="97.860001">
    <g
       id="patch_1"
       style="stroke-linecap:butt;stroke-linejoin:round">
      <path
         d="M 0,187.2 H 181.8 V 0 H 0 Z"
         style="fill:#ffffff;stroke-linecap:butt;stroke-linejoin:round"
         id="path6"
         inkscape:connector-curvature="0" />
    </g>
    <g
       id="axes_1"
       style="stroke-linecap:butt;stroke-linejoin:round">
      <g
         id="patch_2"
         style="stroke-linecap:butt;stroke-linejoin:round">
        <path
           clip-path="url(#p99abba242d)"
           d="m 174.6,155.314 -4.185,1.235 v -1.232 H 7.2 v -0.005 h 163.215 v -1.232 z"
           style="stroke:#000000;stroke-linecap:butt;stroke-linejoin:round"
           id="path9"
           inkscape:connector-curvature="0" />
      </g>
      <g
         id="patch_3"
         style="stroke-linecap:butt;stroke-linejoin:round">
        <path
           clip-path="url(#p99abba242d)"
           d="m 49.05,12.1371 2.0925,2.4686 H 49.0709 V 165.189 H 49.0291 V 14.6057 h -2.0716 z"
           style="stroke:#000000;stroke-linecap:butt;stroke-linejoin:round"
           id="path12"
           inkscape:connector-curvature="0" />
      </g>
      <g
         id="line2d_1"
         style="stroke-linecap:butt;stroke-linejoin:round">
        <path
           clip-path="url(#p99abba242d)"
           d="m 59.5125,158.169 1.9217,-0.407 1.9217,-0.456 1.9217,-0.509 1.9216,-0.564 1.9217,-0.623 1.9217,-0.683 1.9217,-0.748 1.9217,-0.815 1.9217,-0.884 1.9216,-0.957 1.9217,-1.033 1.9217,-1.111 1.9217,-1.192 1.9217,-1.277 1.9217,-1.363 1.9216,-1.454 1.9217,-1.546 1.9217,-1.641 1.9217,-1.74 1.9217,-1.842 1.9217,-1.945 1.9221,-2.053 1.921,-2.163 1.922,-2.275 1.922,-2.391 1.921,-2.51 1.922,-2.631 1.922,-2.756 1.921,-2.882 1.922,-3.013 1.922,-3.145 1.921,-3.281 1.922,-3.42 1.922,-3.5616 1.921,-3.7056 1.922,-3.8529 1.922,-4.003 1.921,-4.156 1.922,-4.3118 1.922,-4.4705 1.922,-4.632 1.921,-4.7965 1.922,-4.9638 1.922,-5.134 1.921,-5.307 1.922,-5.4829 1.922,-5.6617 1.921,-5.8433 1.922,-6.0278"
           style="fill:none;stroke:#0000ff;stroke-width:1.25;stroke-linecap:square;stroke-linejoin:round"
           id="path15"
           inkscape:connector-curvature="0" />
      </g>
      <g
         id="line2d_2"
         style="stroke-linecap:butt;stroke-linejoin:round">
        <path
           clip-path="url(#p99abba242d)"
           d="m 101.363,161.985 1.11,-2.76 1.11,-2.759 1.11,-2.76 1.111,-2.759 1.11,-2.76 1.11,-2.759 1.111,-2.76 1.11,-2.759 1.11,-2.76 1.111,-2.759 1.11,-2.76 1.11,-2.759 1.11,-2.76 1.111,-2.76 1.11,-2.759 1.11,-2.76 1.111,-2.759 1.11,-2.76 1.11,-2.759 1.111,-2.76 1.11,-2.759 1.11,-2.76 1.111,-2.7593 1.11,-2.7596 1.11,-2.7595 1.11,-2.7595 1.111,-2.7596 1.11,-2.7595 1.11,-2.7595 1.111,-2.7596 1.11,-2.7595 1.11,-2.7595 1.111,-2.7596 1.11,-2.7595 1.11,-2.7596 1.111,-2.7595 1.11,-2.7595 1.11,-2.7596 1.11,-2.7595 1.111,-2.7595 1.11,-2.7596 1.11,-2.7595 1.111,-2.7595 1.11,-2.7596 1.11,-2.7595 1.111,-2.7595 1.11,-2.7596 1.11,-2.7595 1.111,-2.7596"
           style="fill:none;stroke:#808080;stroke-width:0.75;stroke-linecap:square;stroke-linejoin:round"
           id="path18"
           inkscape:connector-curvature="0" />
      </g>
      <g
         id="line2d_3"
         style="stroke-linecap:butt;stroke-linejoin:round">
        <path
           clip-path="url(#p99abba242d)"
           d="m 78.9365,160.022 1.1103,-1.293 1.1103,-1.294 1.1103,-1.293 1.1103,-1.293 1.1103,-1.293 1.1103,-1.294 1.1103,-1.293 1.1103,-1.293 1.1103,-1.293 1.1103,-1.294 1.1103,-1.293 1.1103,-1.293 1.1104,-1.293 1.1103,-1.294 1.1103,-1.293 1.1103,-1.293 1.1103,-1.293 1.1103,-1.294 1.11,-1.293 1.111,-1.293 1.11,-1.293 1.11,-1.294 1.111,-1.293 1.11,-1.293 1.11,-1.293 1.11,-1.294 1.111,-1.293 1.11,-1.293 1.11,-1.293 1.111,-1.294 1.11,-1.293 1.11,-1.293 1.111,-1.293 1.11,-1.294 1.11,-1.293 1.11,-1.293 1.111,-1.293 1.11,-1.294 1.11,-1.293 1.111,-1.293 1.11,-1.293 1.11,-1.294 1.111,-1.293 1.11,-1.293 1.11,-1.293 1.111,-1.294 1.11,-1.293 1.11,-1.2932 1.11,-1.2933"
           style="fill:none;stroke:#808080;stroke-width:0.75;stroke-linecap:square;stroke-linejoin:round"
           id="path21"
           inkscape:connector-curvature="0" />
      </g>
      <g
         id="line2d_4"
         style="stroke-linecap:butt;stroke-linejoin:round">
        <path
           clip-path="url(#p99abba242d)"
           d="m 49.05,68.3731 h 89.978"
           style="fill:none;stroke:#808080;stroke-linecap:butt;stroke-linejoin:round;stroke-dasharray:6, 6;stroke-dashoffset:0"
           id="path24"
           inkscape:connector-curvature="0" />
      </g>
      <g
         id="line2d_5"
         style="stroke-linecap:butt;stroke-linejoin:round">
        <path
           clip-path="url(#p99abba242d)"
           d="M 139.028,68.3731 V 155.314"
           style="fill:none;stroke:#808080;stroke-linecap:butt;stroke-linejoin:round;stroke-dasharray:6, 6;stroke-dashoffset:0"
           id="path27"
           inkscape:connector-curvature="0" />
      </g>
      <g
         id="line2d_6"
         style="stroke-linecap:butt;stroke-linejoin:round">
        <defs
           id="defs31">
          <path
             d="M 0,1.5 C 0.397805,1.5 0.77937,1.34195 1.06066,1.06066 1.34195,0.77937 1.5,0.397805 1.5,0 1.5,-0.397805 1.34195,-0.77937 1.06066,-1.06066 0.77937,-1.34195 0.397805,-1.5 0,-1.5 c -0.397805,0 -0.77937,0.15805 -1.06066,0.43934 C -1.34195,-0.77937 -1.5,-0.397805 -1.5,0 c 0,0.397805 0.15805,0.77937 0.43934,1.06066 C -0.77937,1.34195 -0.397805,1.5 0,1.5 Z"
             id="m8185dd89ac"
             style="stroke:#000000;stroke-width:0.5;stroke-linecap:butt;stroke-linejoin:round"
             inkscape:connector-curvature="0" />
        </defs>
        <g
           clip-path="url(#p99abba242d)"
           id="g35"
           style="stroke-linecap:butt;stroke-linejoin:round">
          <use
             style="stroke:#000000;stroke-width:0.5;stroke-linecap:butt;stroke-linejoin:round"
             x="139.0275"
             xlink:href="#m8185dd89ac"
             y="68.373055"
             id="use33"
             width="100%"
             height="100%" />
        </g>
      </g>
      <g
         id="line2d_7"
         style="stroke-linecap:butt;stroke-linejoin:round">
        <path
           clip-path="url(#p99abba242d)"
           d="m 139.028,157.783 v -4.937"
           style="fill:none;stroke:#000000;stroke-linecap:square;stroke-linejoin:round"
           id="path38"
           inkscape:connector-curvature="0" />
      </g>
      <g
         id="line2d_8"
         style="stroke-linecap:butt;stroke-linejoin:round">
        <path
           clip-path="url(#p99abba242d)"
           d="m 44.865,68.3731 h 8.37"
           style="fill:none;stroke:#000000;stroke-linecap:square;stroke-linejoin:round"
           id="path41"
           inkscape:connector-curvature="0" />
      </g>
      <g
         id="line2d_9"
         style="stroke-linecap:butt;stroke-linejoin:round">
        <path
           clip-path="url(#p99abba242d)"
           d="m 49.05,130.774 h 54.996"
           style="fill:none;stroke:#808080;stroke-linecap:butt;stroke-linejoin:round;stroke-dasharray:6, 6;stroke-dashoffset:0"
           id="path44"
           inkscape:connector-curvature="0" />
      </g>
      <g
         id="line2d_10"
         style="stroke-linecap:butt;stroke-linejoin:round">
        <path
           clip-path="url(#p99abba242d)"
           d="m 104.046,130.774 v 24.54"
           style="fill:none;stroke:#808080;stroke-linecap:butt;stroke-linejoin:round;stroke-dasharray:6, 6;stroke-dashoffset:0"
           id="path47"
           inkscape:connector-curvature="0" />
      </g>
      <g
         id="line2d_11"
         style="stroke-linecap:butt;stroke-linejoin:round">
        <g
           clip-path="url(#p99abba242d)"
           id="g52"
           style="stroke-linecap:butt;stroke-linejoin:round">
          <use
             style="stroke:#000000;stroke-width:0.5;stroke-linecap:butt;stroke-linejoin:round"
             x="104.04647"
             xlink:href="#m8185dd89ac"
             y="130.77443"
             id="use50"
             width="100%"
             height="100%" />
        </g>
      </g>
      <g
         id="line2d_12"
         style="stroke-linecap:butt;stroke-linejoin:round">
        <path
           clip-path="url(#p99abba242d)"
           d="m 104.046,157.783 v -4.937"
           style="fill:none;stroke:#000000;stroke-linecap:square;stroke-linejoin:round"
           id="path55"
           inkscape:connector-curvature="0" />
      </g>
      <g
         id="line2d_13"
         style="stroke-linecap:butt;stroke-linejoin:round">
        <path
           clip-path="url(#p99abba242d)"
           d="m 44.865,130.774 h 8.37"
           style="fill:none;stroke:#000000;stroke-linecap:square;stroke-linejoin:round"
           id="path58"
           inkscape:connector-curvature="0" />
      </g>
      <g
         id="line2d_14"
         style="stroke-linecap:butt;stroke-linejoin:round">
        <path
           clip-path="url(#p99abba242d)"
           d="m 82.978,157.783 v -4.937"
           style="fill:none;stroke:#000000;stroke-linecap:square;stroke-linejoin:round"
           id="path61"
           inkscape:connector-curvature="0" />
      </g>
      <g
         id="line2d_15"
         style="stroke-linecap:butt;stroke-linejoin:round">
        <defs
           id="defs65">
          <path
             d="M 0,1.5 C 0.397805,1.5 0.77937,1.34195 1.06066,1.06066 1.34195,0.77937 1.5,0.397805 1.5,0 1.5,-0.397805 1.34195,-0.77937 1.06066,-1.06066 0.77937,-1.34195 0.397805,-1.5 0,-1.5 c -0.397805,0 -0.77937,0.15805 -1.06066,0.43934 C -1.34195,-0.77937 -1.5,-0.397805 -1.5,0 c 0,0.397805 0.15805,0.77937 0.43934,1.06066 C -0.77937,1.34195 -0.397805,1.5 0,1.5 Z"
             id="m12639309c5"
             style="stroke:#000000;stroke-width:0.5;stroke-linecap:butt;stroke-linejoin:round"
             inkscape:connector-curvature="0" />
        </defs>
        <g
           clip-path="url(#p99abba242d)"
           id="g71"
           style="stroke-linecap:butt;stroke-linejoin:round">
          <use
             style="fill:#ff0000;stroke:#000000;stroke-width:0.5;stroke-linecap:butt;stroke-linejoin:round"
             x="69.974998"
             xlink:href="#m12639309c5"
             y="155.31429"
             id="use67"
             width="100%"
             height="100%" />
          <use
             style="fill:#ff0000;stroke:#000000;stroke-width:0.5;stroke-linecap:butt;stroke-linejoin:round"
             x="69.974998"
             xlink:href="#m12639309c5"
             y="155.31429"
             id="use69"
             width="100%"
             height="100%" />
        </g>
      </g>
      <g
         id="matplotlib.axis_1"
         style="stroke-linecap:butt;stroke-linejoin:round" />
      <g
         id="matplotlib.axis_2"
         style="stroke-linecap:butt;stroke-linejoin:round" />
      <g
         id="text_1"
         style="stroke-linecap:butt;stroke-linejoin:round">
        <!-- $x$ -->
        <defs
           id="defs77">
          <path
             d="m 7.8125,2.875 q 1.76562,-1.35938 4.9844,-1.35938 3.125,0 5.5156,3 2.3906,3 3.2656,6.56248 l 4.5469,17.7344 q 1.0781,4.8281 1.0781,6.5937 0,2.4844 -1.3906,4.3438 -1.3906,1.8594 -3.8906,1.8594 -3.1719,0 -5.9531,-1.9844 Q 13.1875,37.6406 11.2812,34.5938 9.375,31.5469 8.59375,28.4219 8.40625,27.7812 7.8125,27.7812 H 6.59375 q -0.78125,0 -0.78125,0.9376 V 29 q 0.96875,3.7188 3.3125,7.25 2.3438,3.5469 5.7344,5.7344 3.4062,2.2031 7.2656,2.2031 3.6562,0 6.6094,-1.9531 2.9531,-1.9532 4.1718,-5.3125 1.7188,3.0625 4.375,5.1562 2.6563,2.1094 5.8282,2.1094 2.1562,0 4.3906,-0.7656 2.25,-0.75 3.6719,-2.3125 1.4219,-1.5625 1.4219,-3.9063 0,-2.5312 -1.6407,-4.375 Q 49.3125,31 46.7812,31 q -1.6093,0 -2.6874,1.0312 -1.0782,1.0313 -1.0782,2.5938 0,2.0938 1.4375,3.6719 1.4531,1.5937 3.4531,1.8906 -1.8124,1.4219 -4.9843,1.4219 -3.2188,0 -5.5938,-2.9844 -2.3593,-2.9844 -3.3437,-6.6406 L 29.5938,14.3125 q -1.0782,-4.0156 -1.0782,-6.59375 0,-2.54687 1.4375,-4.375 1.4375,-1.82813 3.8438,-1.82813 4.6875,0 8.3593,4.125 3.6876,4.125 4.8594,9.06248 0.2032,0.5781 0.7813,0.5781 h 1.2343 q 0.3907,0 0.625,-0.2656 0.25,-0.2656 0.25,-0.6094 0,-0.0937 -0.0937,-0.2968 Q 48.3906,8.15625 43.8438,3.51562 39.3125,-1.125 33.5938,-1.125 q -3.6563,0 -6.6094,1.96875 -2.9532,1.98437 -4.1875,5.35937 -1.5625,-2.9375 -4.3281,-5.14062 -2.75,-2.1875 -5.875,-2.1875 -2.1407,0 -4.42192,0.765625 -2.26563,0.75 -3.6875,2.312495 -1.40626,1.5625 -1.40626,3.95313 0,2.34375 1.625,4.26565 1.64063,1.9375 4.09376,1.9375 1.65622,0 2.78122,-1 1.125,-1 1.125,-2.6094 0,-2.10938 -1.4062,-3.67188 Q 9.90625,3.26562 7.8125,2.875"
             id="Cmmi10-78"
             inkscape:connector-curvature="0"
             style="stroke-linecap:butt;stroke-linejoin:round" />
        </defs>
        <g
           transform="matrix(0.12,0,0,-0.12,164.1375,172.59429)"
           id="g81"
           style="stroke-linecap:butt;stroke-linejoin:round">
          <use
             transform="translate(0,0.8125)"
             xlink:href="#Cmmi10-78"
             id="use79"
             style="stroke-linecap:butt;stroke-linejoin:round"
             x="0"
             y="0"
             width="100%"
             height="100%" />
        </g>
      </g>
      <g
         id="text_2"
         style="stroke-linecap:butt;stroke-linejoin:round">
        <!-- $y$ -->
        <defs
           id="defs85">
          <path
             d="m 8.40625,-14.3125 q 2.09375,-3.6094 7.31255,-3.6094 4.7343,0 8.2031,3.3281 3.4687,3.3126 5.5937,8.0313 2.125,4.70312 3.2969,9.64062 -4.4375,-4.20312 -9.625,-4.20312 -3.9531,0 -6.7344,1.359375 -2.7812,1.375005 -4.3281,4.078125 -1.5312,2.71875 -1.5312,6.5781 0,3.2656 0.875,6.7032 0.8906,3.4531 2.4687,7.6718 1.5937,4.2344 2.7656,7.3594 1.3125,3.6562 1.3125,6 0,2.9844 -2.1875,2.9844 -3.9687,0 -6.53122,-4.0782 Q 6.73438,33.4531 5.51562,28.4219 5.32812,27.7812 4.6875,27.7812 H 3.51562 q -0.82812,0 -0.82812,0.9376 V 29 q 1.60938,5.9688 4.92188,10.5781 3.32812,4.6094 8.40622,4.6094 3.5625,0 6.0313,-2.3437 2.4687,-2.3438 2.4687,-5.9532 0,-1.8594 -0.8281,-3.9062 -0.4375,-1.2188 -2,-5.3282 -1.5625,-4.0937 -2.4063,-6.7812 -0.8281,-2.6875 -1.3593,-5.2812 -0.5313,-2.5782 -0.5313,-5.17192 0,-3.3125 1.4063,-5.60938 1.4219,-2.29688 4.5,-2.29688 6.2031,0 11.125,7.5625 L 42,39.8906 q 0.3281,1.3282 1.5469,2.2656 1.2343,0.9532 2.6406,0.9532 1.2187,0 2.125,-0.7813 0.9063,-0.7812 0.9063,-2.0469 0,-0.5781 -0.0938,-0.7812 L 39.2031,-0.296875 Q 37.8906,-5.42188 34.375,-10.1094 q -3.5156,-4.6875 -8.4688,-7.5468 -4.9531,-2.8594 -10.3281,-2.8594 -2.5937,0 -5.1406,1.0156 -2.53125,1 -4.09375,3 -1.5625,2 -1.5625,4.6875 0,2.73438 1.60937,4.73438 1.625,2 4.29688,2 1.625,0 2.7187,-1 1.0938,-1 1.0938,-2.60938 0,-2.2969 -1.7188,-4 -1.7031,-1.7187 -3.98432,-1.7187 -0.10938,0.0468 -0.20313,0.0781 -0.09375,0.0156 -0.1875,0.0156"
             id="Cmmi10-79"
             inkscape:connector-curvature="0"
             style="stroke-linecap:butt;stroke-linejoin:round" />
        </defs>
        <g
           transform="matrix(0.12,0,0,-0.12,38.5875,26.948571)"
           id="g89"
           style="stroke-linecap:butt;stroke-linejoin:round">
          <use
             transform="translate(0,0.8125)"
             xlink:href="#Cmmi10-79"
             id="use87"
             style="stroke-linecap:butt;stroke-linejoin:round"
             x="0"
             y="0"
             width="100%"
             height="100%" />
        </g>
      </g>
      <g
         id="text_3"
         style="stroke-linecap:butt;stroke-linejoin:round">
        <!-- $f(x^{(1)})$ -->
        <defs
           id="defs96">
          <path
             d="m 9.71875,-16.5 q 1.85935,-1.4219 4.48435,-1.4219 3.5781,0 5.8125,7.9063 0.9375,3.81248 5.0782,25.1094 l 4.5937,24.5 h -8.5937 q -0.9688,0 -0.9688,1.3281 0.3906,2.1875 1.2656,2.1875 h 8.9375 l 1.1719,6.5 q 0.5781,3.0312 1.0625,5.2031 0.5,2.1719 1.0625,4.0156 0.5625,1.8594 1.6719,4.1563 1.7187,3.2812 4.625,5.4062 2.9062,2.125 6.2656,2.125 2.2031,0 4.2813,-0.8125 2.0781,-0.8125 3.3906,-2.4219 1.3125,-1.6093 1.3125,-3.7968 0,-2.5469 -1.6875,-4.4375 -1.6719,-1.875 -4.0625,-1.875 -1.625,0 -2.7657,1 -1.1406,1.0156 -1.1406,2.625 0,2.1875 1.4844,3.8281 1.4844,1.6406 3.6875,1.875 -1.8594,1.4219 -4.5937,1.4219 -1.5157,0 -2.8594,-1.4219 Q 41.8906,65.0938 41.5,63.4844 40.875,60.9375 38.7188,49.7031 L 37.5,43.1094 h 10.2969 q 0.9843,0 0.9843,-1.3125 -0.0468,-0.25 -0.2031,-0.8594 -0.1406,-0.6094 -0.4062,-0.9844 -0.2657,-0.3593 -0.6563,-0.3593 H 36.8125 L 32.1719,15.1875 Q 31.2969,9.85938 30.1406,4.35938 29,-1.125 26.9219,-6.90625 24.8594,-12.7031 21.625,-16.6094 q -3.2188,-3.9062 -7.6094,-3.9062 -3.375,0 -6.03122,1.9375 -2.65626,1.9219 -2.65626,5.0937 0,2.5469 1.625,4.43752 1.64063,1.875 4.12498,1.875 1.6719,0 2.7813,-1 1.125,-1.01562 1.125,-2.62502 0,-2.1406 -1.5938,-3.9219 Q 11.8125,-16.5 9.71875,-16.5"
             id="Cmmi10-66"
             inkscape:connector-curvature="0"
             style="stroke-linecap:butt;stroke-linejoin:round" />
          <path
             d="m 9.28125,0 v 3.51562 q 12.49995,0 12.49995,3.17188 v 52.5 q -5.1718,-2.5 -13.0937,-2.5 v 3.5156 q 12.2656,0 18.5156,6.4063 h 1.4063 q 0.3437,0 0.6562,-0.2813 0.3282,-0.2656 0.3282,-0.6093 V 6.6875 q 0,-3.17188 12.5,-3.17188 V 0 Z"
             id="Cmr10-31"
             inkscape:connector-curvature="0"
             style="stroke-linecap:butt;stroke-linejoin:round" />
          <path
             d="m 31,-24.8125 q -5.5625,4.4063 -9.5938,10.0937 -4.0156,5.68755 -6.5937,12.14068 Q 12.25,3.85938 10.9844,10.8906 9.71875,17.9219 9.71875,25 q 0,7.1719 1.26565,14.2031 1.2656,7.0313 3.875,13.5313 2.625,6.5 6.6718,12.1562 Q 25.5938,70.5625 31,74.8125 31,75 31.5,75 h 0.9219 q 0.2969,0 0.5312,-0.2656 0.25,-0.2656 0.25,-0.6094 0,-0.4375 -0.1875,-0.6406 Q 28.125,68.7031 24.875,63.2344 21.625,57.7656 19.6406,51.5781 17.6719,45.4062 16.7969,38.7812 15.9219,32.1719 15.9219,25 q 0,-31.78125 16.9843,-48.2969 0.2969,-0.2812 0.2969,-0.8281 0,-0.2344 -0.2656,-0.5469 Q 32.6719,-25 32.4219,-25 H 31.5 q -0.5,0 -0.5,0.1875"
             id="Cmr10-28"
             inkscape:connector-curvature="0"
             style="stroke-linecap:butt;stroke-linejoin:round" />
          <path
             d="m 6.5,-25 q -0.89062,0 -0.89062,0.875 0,0.4375 0.20312,0.6406 Q 22.9062,-6.78125 22.9062,25 22.9062,56.7812 6,73.2969 5.60938,73.5312 5.60938,74.125 q 0,0.3438 0.26562,0.6094 Q 6.15625,75 6.5,75 h 0.92188 q 0.29687,0 0.48437,-0.1875 7.18755,-5.6719 11.96875,-13.7813 4.7812,-8.0937 7,-17.2812 2.2344,-9.1719 2.2344,-18.75 0,-7.0781 -1.2032,-13.9375 Q 26.7031,4.20312 24.0938,-2.45312 21.4844,-9.125 17.4844,-14.7656 q -4,-5.6406 -9.57815,-10.0469 Q 7.71875,-25 7.42188,-25 Z"
             id="Cmr10-29"
             inkscape:connector-curvature="0"
             style="stroke-linecap:butt;stroke-linejoin:round" />
        </defs>
        <g
           transform="matrix(0.12,0,0,-0.12,7.2,68.866766)"
           id="g112"
           style="stroke-linecap:butt;stroke-linejoin:round">
          <use
             transform="translate(0,0.984375)"
             xlink:href="#Cmmi10-66"
             id="use98"
             style="stroke-linecap:butt;stroke-linejoin:round"
             x="0"
             y="0"
             width="100%"
             height="100%" />
          <use
             transform="translate(48.876953,0.984375)"
             xlink:href="#Cmr10-28"
             id="use100"
             style="stroke-linecap:butt;stroke-linejoin:round"
             x="0"
             y="0"
             width="100%"
             height="100%" />
          <use
             transform="translate(87.695312,0.984375)"
             xlink:href="#Cmmi10-78"
             id="use102"
             style="stroke-linecap:butt;stroke-linejoin:round"
             x="0"
             y="0"
             width="100%"
             height="100%" />
          <use
             transform="matrix(0.7,0,0,0.7,144.77539,43.5)"
             xlink:href="#Cmr10-28"
             id="use104"
             style="stroke-linecap:butt;stroke-linejoin:round"
             x="0"
             y="0"
             width="100%"
             height="100%" />
          <use
             transform="matrix(0.7,0,0,0.7,171.94824,43.5)"
             xlink:href="#Cmr10-31"
             id="use106"
             style="stroke-linecap:butt;stroke-linejoin:round"
             x="0"
             y="0"
             width="100%"
             height="100%" />
          <use
             transform="matrix(0.7,0,0,0.7,206.94824,43.5)"
             xlink:href="#Cmr10-29"
             id="use108"
             style="stroke-linecap:butt;stroke-linejoin:round"
             x="0"
             y="0"
             width="100%"
             height="100%" />
          <use
             transform="translate(251.12734,0.984375)"
             xlink:href="#Cmr10-29"
             id="use110"
             style="stroke-linecap:butt;stroke-linejoin:round"
             x="0"
             y="0"
             width="100%"
             height="100%" />
        </g>
      </g>
      <g
         id="text_4"
         style="stroke-linecap:butt;stroke-linejoin:round">
        <!-- $x^{(1)}$ -->
        <g
           transform="matrix(0.12,0,0,-0.12,128.565,172.59429)"
           id="g123"
           style="stroke-linecap:butt;stroke-linejoin:round">
          <use
             transform="translate(0,0.984375)"
             xlink:href="#Cmmi10-78"
             id="use115"
             style="stroke-linecap:butt;stroke-linejoin:round"
             x="0"
             y="0"
             width="100%"
             height="100%" />
          <use
             transform="matrix(0.7,0,0,0.7,57.080078,43.5)"
             xlink:href="#Cmr10-28"
             id="use117"
             style="stroke-linecap:butt;stroke-linejoin:round"
             x="0"
             y="0"
             width="100%"
             height="100%" />
          <use
             transform="matrix(0.7,0,0,0.7,84.25293,43.5)"
             xlink:href="#Cmr10-31"
             id="use119"
             style="stroke-linecap:butt;stroke-linejoin:round"
             x="0"
             y="0"
             width="100%"
             height="100%" />
          <use
             transform="matrix(0.7,0,0,0.7,119.25293,43.5)"
             xlink:href="#Cmr10-29"
             id="use121"
             style="stroke-linecap:butt;stroke-linejoin:round"
             x="0"
             y="0"
             width="100%"
             height="100%" />
        </g>
      </g>
      <g
         id="text_5"
         style="stroke-linecap:butt;stroke-linejoin:round">
        <!-- $f(x^{(2)})$ -->
        <defs
           id="defs127">
          <path
             d="m 4.98438,0 v 2.6875 q 0,0.25 0.1875,0.53125 L 20.7031,20.4062 q 3.5157,3.8126 5.7031,6.3907 2.2032,2.5937 4.3438,5.9687 2.1562,3.375 3.4062,6.8594 1.25,3.4844 1.25,7.3906 0,4.1094 -1.5156,7.8438 -1.5156,3.7344 -4.5156,5.9844 -3,2.25 -7.25,2.25 -4.3438,0 -7.8125,-2.625 -3.4687,-2.6094 -4.89062,-6.75 0.39062,0.0937 1.07812,0.0937 2.25,0 3.8281,-1.5156 1.5938,-1.5157 1.5938,-3.9063 0,-2.2968 -1.5938,-3.8906 Q 12.75,42.9219 10.5,42.9219 q -2.34375,0 -3.9375,1.625 -1.57812,1.6406 -1.57812,3.8437 0,3.7656 1.40624,7.0469 1.42188,3.2969 4.07818,5.8594 2.6718,2.5781 6.0156,3.9375 3.3437,1.375 7.0937,1.375 5.7188,0 10.6407,-2.4219 4.9374,-2.4219 7.8124,-6.8437 2.8907,-4.4063 2.8907,-10.3282 0,-4.3437 -1.9063,-8.25 -1.9062,-3.9062 -4.8906,-7.1094 -2.9688,-3.1874 -7.6094,-7.25 Q 25.875,20.3594 24.4219,19 L 13.0938,8.10938 h 9.6093 q 7.0781,0 11.8438,0.10937 4.7656,0.125 5.0469,0.375 Q 40.7656,9.85938 42,17.8281 h 2.9219 L 42.0938,0 Z"
             id="Cmr10-32"
             inkscape:connector-curvature="0"
             style="stroke-linecap:butt;stroke-linejoin:round" />
        </defs>
        <g
           transform="matrix(0.12,0,0,-0.12,7.2,131.26815)"
           id="g143"
           style="stroke-linecap:butt;stroke-linejoin:round">
          <use
             transform="translate(0,0.984375)"
             xlink:href="#Cmmi10-66"
             id="use129"
             style="stroke-linecap:butt;stroke-linejoin:round"
             x="0"
             y="0"
             width="100%"
             height="100%" />
          <use
             transform="translate(48.876953,0.984375)"
             xlink:href="#Cmr10-28"
             id="use131"
             style="stroke-linecap:butt;stroke-linejoin:round"
             x="0"
             y="0"
             width="100%"
             height="100%" />
          <use
             transform="translate(87.695312,0.984375)"
             xlink:href="#Cmmi10-78"
             id="use133"
             style="stroke-linecap:butt;stroke-linejoin:round"
             x="0"
             y="0"
             width="100%"
             height="100%" />
          <use
             transform="matrix(0.7,0,0,0.7,144.77539,43.5)"
             xlink:href="#Cmr10-28"
             id="use135"
             style="stroke-linecap:butt;stroke-linejoin:round"
             x="0"
             y="0"
             width="100%"
             height="100%" />
          <use
             transform="matrix(0.7,0,0,0.7,171.94824,43.5)"
             xlink:href="#Cmr10-32"
             id="use137"
             style="stroke-linecap:butt;stroke-linejoin:round"
             x="0"
             y="0"
             width="100%"
             height="100%" />
          <use
             transform="matrix(0.7,0,0,0.7,206.94824,43.5)"
             xlink:href="#Cmr10-29"
             id="use139"
             style="stroke-linecap:butt;stroke-linejoin:round"
             x="0"
             y="0"
             width="100%"
             height="100%" />
          <use
             transform="translate(251.12734,0.984375)"
             xlink:href="#Cmr10-29"
             id="use141"
             style="stroke-linecap:butt;stroke-linejoin:round"
             x="0"
             y="0"
             width="100%"
             height="100%" />
        </g>
      </g>
      <g
         id="text_6"
         style="stroke-linecap:butt;stroke-linejoin:round">
        <!-- $x^{(2)}$ -->
        <g
           transform="matrix(0.12,0,0,-0.12,93.583972,172.59429)"
           id="g154"
           style="stroke-linecap:butt;stroke-linejoin:round">
          <use
             transform="translate(0,0.984375)"
             xlink:href="#Cmmi10-78"
             id="use146"
             style="stroke-linecap:butt;stroke-linejoin:round"
             x="0"
             y="0"
             width="100%"
             height="100%" />
          <use
             transform="matrix(0.7,0,0,0.7,57.080078,43.5)"
             xlink:href="#Cmr10-28"
             id="use148"
             style="stroke-linecap:butt;stroke-linejoin:round"
             x="0"
             y="0"
             width="100%"
             height="100%" />
          <use
             transform="matrix(0.7,0,0,0.7,84.25293,43.5)"
             xlink:href="#Cmr10-32"
             id="use150"
             style="stroke-linecap:butt;stroke-linejoin:round"
             x="0"
             y="0"
             width="100%"
             height="100%" />
          <use
             transform="matrix(0.7,0,0,0.7,119.25293,43.5)"
             xlink:href="#Cmr10-29"
             id="use152"
             style="stroke-linecap:butt;stroke-linejoin:round"
             x="0"
             y="0"
             width="100%"
             height="100%" />
        </g>
      </g>
      <g
         id="text_7"
         style="stroke-linecap:butt;stroke-linejoin:round">
        <!-- $x^{(3)}$ -->
        <defs
           id="defs158">
          <path
             d="m 9.51562,7.71875 q 2.34378,-3.42187 6.29688,-5.07813 3.9687,-1.656245 8.5,-1.656245 5.8125,0 8.25,4.953125 2.4531,4.9531 2.4531,11.25 0,2.8281 -0.5156,5.6563 -0.5156,2.8437 -1.7344,5.2812 -1.2187,2.4375 -3.3437,3.9062 Q 27.2969,33.5 24.2188,33.5 h -6.6407 q -0.875,0 -0.875,0.9219 v 0.875 q 0,0.7812 0.875,0.7812 l 5.5157,0.4531 q 3.5156,0 5.8281,2.625 2.3281,2.6407 3.4062,6.4219 1.0781,3.7813 1.0781,7.2031 0,4.7813 -2.25,7.8594 -2.25,3.0782 -6.8437,3.0782 -3.7969,0 -7.2656,-1.4376 -3.4688,-1.4374 -5.5157,-4.375 0.1876,0.0469 0.3282,0.0782 0.1562,0.0312 0.3437,0.0312 2.25,0 3.7657,-1.5625 1.5156,-1.5625 1.5156,-3.7656 0,-2.1563 -1.5156,-3.7187 -1.5157,-1.5626 -3.7657,-1.5626 -2.1875,0 -3.74998,1.5626 -1.5625,1.5624 -1.5625,3.7187 0,4.2969 2.57813,7.4687 2.59375,3.1719 6.67185,4.8126 4.0782,1.6406 8.1719,1.6406 3.0313,0 6.3906,-0.9063 3.375,-0.9062 6.1094,-2.5937 2.7344,-1.6875 4.4687,-4.3282 1.7344,-2.625 1.7344,-6 0,-4.2031 -1.875,-7.7656 -1.875,-3.5625 -5.1562,-6.1562 -3.2656,-2.5782 -7.1719,-3.8438 4.3437,-0.8281 8.25,-3.2812 3.9063,-2.4375 6.2656,-6.25 2.375,-3.7969 2.375,-8.2032 0,-5.5156 -3.0312,-9.98432 -3.0157,-4.46876 -7.9531,-6.98438 -4.9376,-2.51562 -10.4063,-2.51562 -4.6875,0 -9.4063,1.79687 -4.7031,1.78125 -7.70308,5.34375 -3,3.5625 -3,8.5469 0,2.4844 1.65626,4.1406 1.65624,1.6562 4.15622,1.6562 1.6094,0 2.9532,-0.75 1.3437,-0.75 2.0937,-2.125 0.7656,-1.3593 0.7656,-2.9218 0,-2.4532 -1.7187,-4.1094 -1.7032,-1.65625 -4.0938,-1.65625 z"
             id="Cmr10-33"
             inkscape:connector-curvature="0"
             style="stroke-linecap:butt;stroke-linejoin:round" />
        </defs>
        <g
           transform="matrix(0.12,0,0,-0.12,72.515546,172.59429)"
           id="g168"
           style="stroke-linecap:butt;stroke-linejoin:round">
          <use
             transform="translate(0,0.984375)"
             xlink:href="#Cmmi10-78"
             id="use160"
             style="stroke-linecap:butt;stroke-linejoin:round"
             x="0"
             y="0"
             width="100%"
             height="100%" />
          <use
             transform="matrix(0.7,0,0,0.7,57.080078,43.5)"
             xlink:href="#Cmr10-28"
             id="use162"
             style="stroke-linecap:butt;stroke-linejoin:round"
             x="0"
             y="0"
             width="100%"
             height="100%" />
          <use
             transform="matrix(0.7,0,0,0.7,84.25293,43.5)"
             xlink:href="#Cmr10-33"
             id="use164"
             style="stroke-linecap:butt;stroke-linejoin:round"
             x="0"
             y="0"
             width="100%"
             height="100%" />
          <use
             transform="matrix(0.7,0,0,0.7,119.25293,43.5)"
             xlink:href="#Cmr10-29"
             id="use166"
             style="stroke-linecap:butt;stroke-linejoin:round"
             x="0"
             y="0"
             width="100%"
             height="100%" />
        </g>
      </g>
      <g
         id="text_8"
         style="stroke-linecap:butt;stroke-linejoin:round">
        <!-- $x\!^{*}$ -->
        <defs
           id="defs172">
          <path
             d="m 9.42188,12.7031 q -1.125,0 -2.03126,0.9375 Q 6.5,14.5938 6.5,15.7188 q 0,1.7187 1.40625,2.3906 L 22.3125,25 7.90625,31.7812 Q 6.5,32.375 6.5,34.1875 q 0,1.1094 0.89062,2.0625 0.90626,0.9531 2.03126,0.9531 0.73432,0 1.37502,-0.4843 L 23.5781,27.3906 22.125,43.7031 q 0,1.2188 0.8281,2 0.8281,0.7813 2.0469,0.7813 1.1719,0 1.9688,-0.7344 0.8124,-0.7344 0.8124,-1.8594 v -0.1875 l -1.4687,-16.3125 12.7969,9.3282 q 0.6406,0.4843 1.375,0.4843 1.2187,0 2.0625,-0.9531 0.8593,-0.9531 0.8593,-2.0625 0,-1.8125 -1.4062,-2.4063 L 27.5938,25 42,18.1094 q 1.4062,-0.6719 1.4062,-2.3906 0,-1.125 -0.8593,-2.0782 -0.8438,-0.9375 -2.0625,-0.9375 -0.7344,0 -1.375,0.4844 L 26.3125,22.5156 27.7812,6.29688 V 6 q 0,-1.10938 -0.8593,-1.84375 Q 26.0781,3.42188 25,3.42188 q -1.1719,0 -2.0312,0.79687 -0.8438,0.8125 -0.8438,1.98437 L 23.5781,22.5156 10.7969,13.1875 Q 10.1562,12.7031 9.42188,12.7031"
             id="Cmsy10-a4"
             inkscape:connector-curvature="0"
             style="stroke-linecap:butt;stroke-linejoin:round" />
        </defs>
        <g
           transform="matrix(0.12,0,0,-0.12,59.5125,152.84571)"
           id="g178"
           style="stroke-linecap:butt;stroke-linejoin:round">
          <use
             transform="translate(0,0.9453125)"
             xlink:href="#Cmmi10-78"
             id="use174"
             style="stroke-linecap:butt;stroke-linejoin:round"
             x="0"
             y="0"
             width="100%"
             height="100%" />
          <use
             transform="matrix(0.7,0,0,0.7,34.253906,43.460937)"
             xlink:href="#Cmsy10-a4"
             id="use176"
             style="stroke-linecap:butt;stroke-linejoin:round"
             x="0"
             y="0"
             width="100%"
             height="100%" />
        </g>
      </g>
    </g>
  </g>
  <defs
     id="defs186">
    <clipPath
       id="p99abba242d"
       style="stroke-linecap:butt;stroke-linejoin:round">
      <rect
         height="172.8"
         width="167.39999"
         x="7.1999998"
         y="7.1999998"
         id="rect183"
         style="stroke-linecap:butt;stroke-linejoin:round" />
    </clipPath>
  </defs>
</svg>
