<?xml version="1.0" encoding="UTF-8" standalone="no"?>
<!-- Created with Inkscape (http://www.inkscape.org/) -->

<svg
   xmlns:dc="http://purl.org/dc/elements/1.1/"
   xmlns:cc="http://creativecommons.org/ns#"
   xmlns:rdf="http://www.w3.org/1999/02/22-rdf-syntax-ns#"
   xmlns:svg="http://www.w3.org/2000/svg"
   xmlns="http://www.w3.org/2000/svg"
   xmlns:sodipodi="http://sodipodi.sourceforge.net/DTD/sodipodi-0.dtd"
   xmlns:inkscape="http://www.inkscape.org/namespaces/inkscape"
   sodipodi:docname="MC_Undrained.svg"
   inkscape:version="0.48.1 r9760"
   version="1.1"
   id="svg2"
   height="1052.3622047"
   width="744.09448819">
  <sodipodi:namedview
     id="base"
     pagecolor="#ffffff"
     bordercolor="#666666"
     borderopacity="1.0"
     inkscape:pageopacity="0.0"
     inkscape:pageshadow="2"
     inkscape:zoom="1.525"
     inkscape:cx="400"
     inkscape:cy="661.82293"
     inkscape:document-units="px"
     inkscape:current-layer="svg2"
     showgrid="true"
     inkscape:window-width="1600"
     inkscape:window-height="703"
     inkscape:window-x="0"
     inkscape:window-y="30"
     inkscape:window-maximized="1">
    <inkscape:grid
       id="grid2985"
       type="xygrid" />
  </sodipodi:namedview>
  <defs
     id="defs4">
    <marker
       style="overflow:visible"
       id="Arrow1Lstart"
       refX="0.0"
       refY="0.0"
       orient="auto"
       inkscape:stockid="Arrow1Lstart">
      <path
         transform="scale(0.8) translate(12.5,0)"
         style="fill-rule:evenodd;stroke:#000000;stroke-width:1.0pt;marker-start:none"
         d="M 0.0,0.0 L 5.0,-5.0 L -12.5,0.0 L 5.0,5.0 L 0.0,0.0 z "
         id="path3760" />
    </marker>
    <marker
       style="overflow:visible;"
       id="Arrow1Lend"
       refX="0.0"
       refY="0.0"
       orient="auto"
       inkscape:stockid="Arrow1Lend">
      <path
         transform="scale(0.8) rotate(180) translate(12.5,0)"
         style="fill-rule:evenodd;stroke:#000000;stroke-width:1.0pt;marker-start:none;"
         d="M 0.0,0.0 L 5.0,-5.0 L -12.5,0.0 L 5.0,5.0 L 0.0,0.0 z "
         id="path3763" />
    </marker>
    <marker
       style="overflow:visible"
       id="Arrow1Lstart-7"
       refX="0"
       refY="0"
       orient="auto"
       inkscape:stockid="Arrow1Lstart">
      <path
         transform="matrix(0.8,0,0,0.8,10,0)"
         style="fill-rule:evenodd;stroke:#000000;stroke-width:1pt;marker-start:none"
         d="M 0,0 5,-5 -12.5,0 5,5 0,0 z"
         id="path3760-5"
         inkscape:connector-curvature="0" />
    </marker>
    <marker
       style="overflow:visible"
       id="Arrow1Lend-9"
       refX="0"
       refY="0"
       orient="auto"
       inkscape:stockid="Arrow1Lend">
      <path
         transform="matrix(-0.8,0,0,-0.8,-10,0)"
         style="fill-rule:evenodd;stroke:#000000;stroke-width:1pt;marker-start:none"
         d="M 0,0 5,-5 -12.5,0 5,5 0,0 z"
         id="path3763-9"
         inkscape:connector-curvature="0" />
    </marker>
    <marker
       style="overflow:visible"
       id="Arrow1Lstart-5"
       refX="0"
       refY="0"
       orient="auto"
       inkscape:stockid="Arrow1Lstart">
      <path
         transform="matrix(0.8,0,0,0.8,10,0)"
         style="fill-rule:evenodd;stroke:#000000;stroke-width:1pt;marker-start:none"
         d="M 0,0 5,-5 -12.5,0 5,5 0,0 z"
         id="path3760-7"
         inkscape:connector-curvature="0" />
    </marker>
    <marker
       style="overflow:visible"
       id="Arrow1Lend-8"
       refX="0"
       refY="0"
       orient="auto"
       inkscape:stockid="Arrow1Lend">
      <path
         transform="matrix(-0.8,0,0,-0.8,-10,0)"
         style="fill-rule:evenodd;stroke:#000000;stroke-width:1pt;marker-start:none"
         d="M 0,0 5,-5 -12.5,0 5,5 0,0 z"
         id="path3763-6"
         inkscape:connector-curvature="0" />
    </marker>
  </defs>
  <metadata
     id="metadata7">
    <rdf:RDF>
      <cc:Work
         rdf:about="">
        <dc:format>image/svg+xml</dc:format>
        <dc:type
           rdf:resource="http://purl.org/dc/dcmitype/StillImage" />
        <dc:title />
      </cc:Work>
    </rdf:RDF>
  </metadata>
  <g
     id="layer1"
     inkscape:groupmode="layer"
     inkscape:label="Layer 1">
    <path
       inkscape:connector-curvature="0"
       id="path2987"
       d="m 120,552.36218 560,0"
       style="fill:none;stroke:#000000;stroke-width:3;stroke-linecap:butt;stroke-linejoin:miter;stroke-opacity:1;stroke-miterlimit:4;stroke-dasharray:none;marker-end:url(#Arrow1Lend)" />
    <path
       inkscape:connector-curvature="0"
       id="path4201"
       d="m 240,552.36218 0,-425"
       style="fill:none;stroke:#000000;stroke-width:3;stroke-linecap:butt;stroke-linejoin:miter;stroke-miterlimit:4;stroke-opacity:1;stroke-dasharray:none;marker-end:url(#Arrow1Lend)" />
    <path
       inkscape:connector-curvature="0"
       id="path4385"
       d="m 180,552.36218 480,-400"
       style="fill:none;stroke:#000000;stroke-width:3;stroke-linecap:butt;stroke-linejoin:miter;stroke-opacity:1;stroke-miterlimit:4;stroke-dasharray:none" />
    <path
       inkscape:connector-curvature="0"
       id="path4387"
       d="m 530,552.36218 0,-290"
       style="fill:none;stroke:#000000;stroke-width:2;stroke-linecap:butt;stroke-linejoin:miter;stroke-opacity:1;stroke-miterlimit:4;stroke-dasharray:none;marker-start:none;marker-end:url(#Arrow1Lend)" />
    <path
       sodipodi:nodetypes="cc"
       inkscape:connector-curvature="0"
       id="path4753"
       d="m 530,552.36218 c -1.37086,-114.77559 -58.17874,-169.77488 -110,-200"
       style="fill:none;stroke:#000000;stroke-width:2;stroke-linecap:butt;stroke-linejoin:miter;stroke-miterlimit:4;stroke-opacity:1;stroke-dasharray:none;marker-end:url(#Arrow1Lend)" />
    <path
       inkscape:connector-curvature="0"
       id="path4937"
       d="m 530,392.36218 75,-55"
       style="fill:none;stroke:#000000;stroke-width:2;stroke-linecap:butt;stroke-linejoin:miter;stroke-opacity:1;stroke-miterlimit:4;stroke-dasharray:none;marker-end:url(#Arrow1Lend)" />
    <path
       inkscape:connector-curvature="0"
       id="path5121"
       d="m 609,335.36218 0,-140"
       style="fill:none;stroke:#000000;stroke-width:2;stroke-linecap:butt;stroke-linejoin:miter;stroke-miterlimit:4;stroke-opacity:1;stroke-dasharray:none;marker-end:url(#Arrow1Lend)" />
    <path
       inkscape:connector-curvature="0"
       id="path5305"
       d="m 240,352.36218 390,0"
       style="fill:none;stroke:#000000;stroke-width:2;stroke-linecap:butt;stroke-linejoin:miter;stroke-miterlimit:4;stroke-opacity:1;stroke-dasharray:none;stroke-dashoffset:0" />
    <path
       inkscape:connector-curvature="0"
       id="path5305-1"
       d="m 130,262.36218 520,0"
       style="fill:none;stroke:#000000;stroke-width:2;stroke-linecap:butt;stroke-linejoin:miter;stroke-miterlimit:4;stroke-opacity:1;stroke-dasharray:24,24;stroke-dashoffset:0" />
    <path
       inkscape:connector-curvature="0"
       id="path5305-1-4"
       d="m 130,194.32939 520,0"
       style="fill:none;stroke:#000000;stroke-width:2;stroke-linecap:butt;stroke-linejoin:miter;stroke-miterlimit:4;stroke-opacity:1;stroke-dasharray:24,24;stroke-dashoffset:0" />
    <text
       sodipodi:linespacing="125%"
       id="text5343"
       y="446.46054"
       x="543.60657"
       style="font-size:20px;font-style:normal;font-variant:normal;font-weight:normal;font-stretch:normal;line-height:125%;letter-spacing:0px;word-spacing:0px;fill:#000000;fill-opacity:1;stroke:none;font-family:Serif;-inkscape-font-specification:Serif"
       xml:space="preserve"><tspan
         y="446.46054"
         x="543.60657"
         id="tspan5345"
         sodipodi:role="line">(1) MC model</tspan></text>
    <text
       sodipodi:linespacing="125%"
       id="text5347"
       y="424.16547"
       x="399.34427"
       style="font-size:20px;font-style:normal;font-variant:normal;font-weight:normal;font-stretch:normal;line-height:125%;letter-spacing:0px;word-spacing:0px;fill:#000000;fill-opacity:1;stroke:none;font-family:Serif;-inkscape-font-specification:Serif"
       xml:space="preserve"><tspan
         y="424.16547"
         x="399.34427"
         id="tspan5349"
         sodipodi:role="line">(2) reality</tspan></text>
    <text
       sodipodi:linespacing="125%"
       id="text5351"
       y="385.47693"
       x="564.59015"
       style="font-size:20px;font-style:normal;font-variant:normal;font-weight:normal;font-stretch:normal;line-height:125%;letter-spacing:0px;word-spacing:0px;fill:#000000;fill-opacity:1;stroke:none;font-family:Serif;-inkscape-font-specification:Serif"
       xml:space="preserve"><tspan
         y="385.47693"
         x="564.59015"
         id="tspan5353"
         sodipodi:role="line">(3) consolidation</tspan></text>
    <text
       sodipodi:linespacing="125%"
       id="text5355"
       y="243.83759"
       x="618.36066"
       style="font-size:20px;font-style:normal;font-variant:normal;font-weight:normal;font-stretch:normal;line-height:125%;letter-spacing:0px;word-spacing:0px;fill:#000000;fill-opacity:1;stroke:none;font-family:Serif;-inkscape-font-specification:Serif"
       xml:space="preserve"><tspan
         y="243.83759"
         x="618.36066"
         id="tspan5357"
         sodipodi:role="line">(4) MC model</tspan></text>
    <text
       sodipodi:linespacing="125%"
       id="text5359"
       y="224.06709"
       x="317.37704"
       style="font-size:20px;font-style:normal;font-variant:normal;font-weight:normal;font-stretch:normal;line-height:125%;letter-spacing:0px;word-spacing:0px;fill:#000000;fill-opacity:1;stroke:none;font-family:Serif;-inkscape-font-specification:Serif"
       xml:space="preserve"><tspan
         y="224.06709"
         x="317.37704"
         id="tspan5361"
         sodipodi:role="line">shear strength </tspan><tspan
         id="tspan5363"
         y="249.06709"
         x="317.37704"
         sodipodi:role="line">increase</tspan></text>
    <text
       sodipodi:linespacing="125%"
       id="text5365"
       y="252.36218"
       x="106.22951"
       style="font-size:20px;font-style:normal;font-variant:normal;font-weight:normal;font-stretch:normal;line-height:125%;letter-spacing:0px;word-spacing:0px;fill:#000000;fill-opacity:1;stroke:none;font-family:Serif;-inkscape-font-specification:Serif"
       xml:space="preserve"><tspan
         y="252.36218"
         x="106.22951"
         id="tspan5367"
         sodipodi:role="line">Shear strength</tspan></text>
    <text
       inkscape:transform-center-y="-5.3514249"
       transform="matrix(-0.009161,-0.99995804,0.99995804,-0.009161,0,0)"
       sodipodi:linespacing="125%"
       id="text5369"
       y="162.01392"
       x="-435.86481"
       style="font-size:20px;font-style:normal;font-variant:normal;font-weight:normal;font-stretch:normal;line-height:125%;letter-spacing:0px;word-spacing:0px;fill:#000000;fill-opacity:1;stroke:none;font-family:Serif;-inkscape-font-specification:Serif"
       xml:space="preserve"><tspan
         y="162.01392"
         x="-435.86481"
         id="tspan5371"
         sodipodi:role="line">model</tspan></text>
    <text
       transform="matrix(0.01407072,-0.999901,0.999901,0.01407072,0,0)"
       sodipodi:linespacing="125%"
       id="text5373"
       y="144.74545"
       x="-478.37262"
       style="font-size:20px;font-style:normal;font-variant:normal;font-weight:normal;font-stretch:normal;line-height:125%;letter-spacing:0px;word-spacing:0px;fill:#000000;fill-opacity:1;stroke:none;font-family:Serif;-inkscape-font-specification:Serif"
       xml:space="preserve"><tspan
         y="144.74545"
         x="-478.37262"
         id="tspan5375"
         sodipodi:role="line">reality</tspan></text>
    <text
       sodipodi:linespacing="125%"
       id="text5377"
       y="162.36218"
       x="520"
       style="font-size:20px;font-style:normal;font-variant:normal;font-weight:normal;font-stretch:normal;line-height:125%;letter-spacing:0px;word-spacing:0px;fill:#000000;fill-opacity:1;stroke:none;font-family:Serif;-inkscape-font-specification:Serif"
       xml:space="preserve"><tspan
         y="162.36218"
         x="520"
         id="tspan5379"
         sodipodi:role="line">MC failure line</tspan></text>
    <path
       inkscape:connector-curvature="0"
       id="path5381"
       d="m 170,262.36218 0,290"
       style="fill:none;stroke:#000000;stroke-width:1px;stroke-linecap:butt;stroke-linejoin:miter;stroke-opacity:1;marker-start:url(#Arrow1Lstart);marker-end:url(#Arrow1Lend)" />
    <path
       inkscape:connector-curvature="0"
       id="path5381-6"
       d="m 144,352.36218 0,200"
       style="fill:none;stroke:#000000;stroke-width:1;stroke-linecap:butt;stroke-linejoin:miter;stroke-opacity:1;marker-start:url(#Arrow1Lstart);marker-end:url(#Arrow1Lend);stroke-miterlimit:4;stroke-dasharray:none" />
    <path
       inkscape:connector-curvature="0"
       id="path5381-1"
       d="m 440,192.36219 0,69.99999"
       style="fill:none;stroke:#000000;stroke-width:1;stroke-linecap:butt;stroke-linejoin:miter;stroke-opacity:1;marker-start:url(#Arrow1Lstart);marker-end:url(#Arrow1Lend);stroke-miterlimit:4;stroke-dasharray:none" />
    <text
       sodipodi:linespacing="125%"
       id="text5798"
       y="562.36218"
       x="690"
       style="font-size:20px;font-style:normal;font-variant:normal;font-weight:normal;font-stretch:normal;line-height:125%;letter-spacing:0px;word-spacing:0px;fill:#000000;fill-opacity:1;stroke:none;font-family:Serif;-inkscape-font-specification:Serif"
       xml:space="preserve"><tspan
         style="font-size:32px"
         y="562.36218"
         x="690"
         id="tspan5800"
         sodipodi:role="line">p'</tspan></text>
    <text
       sodipodi:linespacing="125%"
       id="text5802"
       y="152.36218"
       x="200"
       style="font-size:20px;font-style:normal;font-variant:normal;font-weight:normal;font-stretch:normal;line-height:125%;letter-spacing:0px;word-spacing:0px;fill:#000000;fill-opacity:1;stroke:none;font-family:Serif;-inkscape-font-specification:Serif"
       xml:space="preserve"><tspan
         style="font-size:32px"
         y="152.36218"
         x="200"
         id="tspan5804"
         sodipodi:role="line">q</tspan></text>
  </g>
  <g
     transform="matrix(0.54509073,0,0,0.48105199,88.299589,364.84036)"
     id="g3562">
    <g
       style="font-style:normal;font-variant:normal;font-weight:normal;font-stretch:normal;letter-spacing:normal;word-spacing:normal;text-anchor:start;fill:none;stroke:#000000;stroke-linecap:butt;stroke-linejoin:miter;stroke-miterlimit:10.43299961;stroke-opacity:1;stroke-dasharray:none;stroke-dashoffset:0"
       id="content"
       transform="matrix(1.0629921,0,0,-1.0629921,-186.02362,789.27165)"
       xml:space="preserve"
       stroke-miterlimit="10.433"
       font-style="normal"
       font-variant="normal"
       font-weight="normal"
       font-stretch="normal"
       font-size-adjust="none"
       letter-spacing="normal"
       word-spacing="normal"><path
         style="fill:#000000;stroke-width:0"
         inkscape:connector-curvature="0"
         d="m 477.19,424.98 -0.11,-0.02 -0.11,-0.01 -0.11,-0.02 -0.11,-0.03 -0.1,-0.02 -0.09,-0.03 -0.1,-0.03 -0.09,-0.03 -0.09,-0.03 -0.08,-0.03 -0.08,-0.04 -0.08,-0.04 -0.08,-0.04 -0.07,-0.04 -0.07,-0.04 -0.07,-0.04 -0.06,-0.05 -0.06,-0.04 -0.06,-0.05 -0.06,-0.05 -0.05,-0.05 -0.05,-0.05 -0.1,-0.1 -0.08,-0.1 -0.08,-0.1 -0.07,-0.11 -0.06,-0.1 -0.06,-0.11 -0.04,-0.1 -0.05,-0.1 -0.03,-0.1 -0.03,-0.1 -0.03,-0.09 -0.02,-0.09 -0.01,-0.08 -0.02,-0.07 -0.01,-0.07 0,-0.06 -0.01,-0.06 0,-0.04 0,-0.04 0,-0.01 0,-0.01 0,-0.01 0,-0.01 c 0,-0.79 0.54,-1.59 1.68,-1.59 1.35,0 2.55,1.09 2.55,2.98 0,2.44 -2.14,4.28 -5.34,4.28 -6.17,0 -12.6,-7.06 -12.6,-14.34 0,-4.94 2.94,-8.22 7.32,-8.22 6.39,0 10.51,4.99 10.51,5.74 0,0.25 -0.39,0.79 -0.79,0.79 -0.21,0 -0.25,-0.06 -0.65,-0.54 -3.68,-4.69 -8.12,-4.89 -8.96,-4.89 -2.69,0 -3.94,2.25 -3.94,5.12 0,2.64 1.34,7.88 2.64,10.27 1.8,3.25 4.28,4.98 6.53,4.98 0.55,0 2.78,-0.09 3.53,-2.14 z"
         id="path3565" /><path
         style="fill:#000000;stroke-width:0"
         inkscape:connector-curvature="0"
         d="m 488.55,440.65 0.03,0.06 0.02,0.05 0.02,0.05 0.03,0.05 0.02,0.04 0.01,0.05 0.02,0.04 0.02,0.04 0.01,0.05 0.02,0.04 0.01,0.03 0.01,0.04 0.01,0.04 0.01,0.03 0.01,0.04 0.01,0.03 0.01,0.03 0.01,0.03 0,0.03 0.01,0.03 0,0.03 0.01,0.03 0,0.03 0,0.02 0.01,0.06 0,0.05 0,0.04 0,0.05 c 0,1.08 -0.98,1.92 -2.06,1.92 -1.33,0 -1.73,-1.09 -1.91,-1.64 l -4.6,-15.09 c -0.04,-0.06 -0.18,-0.52 -0.18,-0.56 0,-0.41 1.08,-0.77 1.36,-0.77 0.25,0 0.28,0.08 0.52,0.59 z"
         id="path3567" /><path
         style="fill:#000000;stroke-width:0"
         inkscape:connector-curvature="0"
         d="m 502.59,406.25 0,0.3 -0.01,0.3 -0.02,0.29 -0.03,0.28 -0.03,0.27 -0.04,0.26 -0.04,0.26 -0.05,0.24 -0.06,0.24 -0.07,0.23 -0.07,0.22 -0.07,0.21 -0.09,0.2 -0.09,0.19 -0.09,0.19 -0.1,0.17 -0.11,0.16 -0.11,0.16 -0.12,0.14 -0.12,0.13 -0.13,0.13 -0.13,0.11 -0.14,0.1 -0.15,0.1 -0.14,0.08 -0.16,0.07 -0.16,0.06 -0.16,0.05 -0.17,0.04 -0.17,0.03 -0.18,0.01 -0.18,0.01 c -1.64,0 -2.64,-1.25 -2.64,-2.64 0,-1.34 1,-2.64 2.64,-2.64 0.6,0 1.25,0.2 1.75,0.64 0.14,0.11 0.21,0.16 0.25,0.16 0.05,0 0.1,-0.05 0.1,-0.75 0,-3.69 -1.74,-6.68 -3.39,-8.32 -0.55,-0.54 -0.55,-0.65 -0.55,-0.79 0,-0.36 0.25,-0.55 0.5,-0.55 0.55,0 4.53,3.83 4.53,9.66 z"
         id="path3569" /><path
         style="fill:#000000;stroke-width:0"
         inkscape:connector-curvature="0"
         d="m 523.03,397.73 -0.01,-0.03 -0.01,-0.03 -0.01,-0.03 -0.01,-0.03 -0.01,-0.02 -0.01,-0.03 -0.01,-0.05 -0.02,-0.05 -0.01,-0.04 -0.01,-0.05 -0.02,-0.04 -0.01,-0.04 -0.01,-0.03 -0.01,-0.04 -0.01,-0.03 -0.01,-0.03 -0.01,-0.03 -0.01,-0.03 0,-0.02 -0.01,-0.03 -0.01,-0.02 0,-0.02 -0.01,-0.03 0,-0.02 -0.01,-0.02 0,-0.04 -0.01,-0.04 0,-0.04 0,-0.04 0,-0.03 0,-0.02 c 0,-1.09 0.95,-1.39 1.45,-1.39 0.25,0 1.34,0.14 1.84,1.3 0.15,0.39 0.4,2.04 1.74,9.11 0.45,-0.05 0.79,-0.1 1.64,-0.1 8.28,0 15.95,7.83 15.95,15.69 l -1.4,-1.09 c 0,-5.63 -6.43,-11.71 -14.1,-11.71 h 0 c -0.39,0 -0.5,0 -0.89,0.05 -0.61,0 -0.66,0.05 -0.66,0.2 0,0.1 0.85,4.63 1,5.38 1.55,6.37 5.44,11.15 9.87,11.15 3.43,0 4.78,-2.68 4.78,-5.07 l 1.4,1.09 c 0,3.89 -1.95,6.87 -5.68,6.87 -7.22,0 -10.21,-9.65 -13.21,-19.37 -5.37,1 -8.17,3.78 -8.17,7.37 0,1.4 1.16,6.88 4.14,10.32 0.39,0.45 0.39,0.54 0.39,0.64 0,0.2 -0.09,0.5 -0.59,0.5 -1.39,0 -5.24,-7.22 -5.24,-12 0,-4.69 3.3,-8.33 8.63,-9.56 z"
         id="path3571" /><path
         style="fill:#000000;stroke-width:0"
         inkscape:connector-curvature="0"
         d="m 557.31,440.65 0.02,0.06 0.03,0.05 0.02,0.05 0.02,0.05 0.02,0.04 0.02,0.05 0.02,0.04 0.02,0.04 0.01,0.05 0.02,0.04 0.01,0.03 0.01,0.04 0.01,0.04 0.01,0.03 0.01,0.04 0.01,0.03 0.01,0.03 0,0.03 0.01,0.03 0.01,0.03 0,0.03 0.01,0.03 0,0.03 0,0.02 0.01,0.06 0,0.05 0,0.04 0,0.05 c 0,1.08 -0.98,1.92 -2.06,1.92 -1.33,0 -1.74,-1.09 -1.91,-1.64 l -4.61,-15.09 c -0.03,-0.06 -0.17,-0.52 -0.17,-0.56 0,-0.41 1.08,-0.77 1.36,-0.77 0.25,0 0.28,0.08 0.52,0.59 z"
         id="path3573" /></g>  </g>
  <g
     id="g3695"
     transform="matrix(0.63001145,0,0,0.61332361,58.159964,122.72503)">
    <g
       word-spacing="normal"
       letter-spacing="normal"
       font-size-adjust="none"
       font-stretch="normal"
       font-weight="normal"
       font-variant="normal"
       font-style="normal"
       stroke-miterlimit="10.433"
       xml:space="preserve"
       transform="matrix(1.0629921,0,0,-1.0629921,-186.02362,789.27165)"
       id="g3697"
       style="font-style:normal;font-variant:normal;font-weight:normal;font-stretch:normal;letter-spacing:normal;word-spacing:normal;text-anchor:start;fill:none;stroke:#000000;stroke-linecap:butt;stroke-linejoin:miter;stroke-miterlimit:10.43299961;stroke-opacity:1;stroke-dasharray:none;stroke-dashoffset:0"><path
         id="path3699"
         d="m 477.19,424.98 -0.11,-0.02 -0.11,-0.01 -0.11,-0.02 -0.11,-0.03 -0.1,-0.02 -0.09,-0.03 -0.1,-0.03 -0.09,-0.03 -0.09,-0.03 -0.08,-0.03 -0.08,-0.04 -0.08,-0.04 -0.08,-0.04 -0.07,-0.04 -0.07,-0.04 -0.07,-0.04 -0.06,-0.05 -0.06,-0.04 -0.06,-0.05 -0.06,-0.05 -0.05,-0.05 -0.05,-0.05 -0.1,-0.1 -0.08,-0.1 -0.08,-0.1 -0.07,-0.11 -0.06,-0.1 -0.06,-0.11 -0.04,-0.1 -0.05,-0.1 -0.03,-0.1 -0.03,-0.1 -0.03,-0.09 -0.02,-0.09 -0.01,-0.08 -0.02,-0.07 -0.01,-0.07 0,-0.06 -0.01,-0.06 0,-0.04 0,-0.04 0,-0.01 0,-0.01 0,-0.01 0,-0.01 c 0,-0.79 0.54,-1.59 1.68,-1.59 1.35,0 2.55,1.09 2.55,2.98 0,2.44 -2.14,4.28 -5.34,4.28 -6.17,0 -12.6,-7.06 -12.6,-14.34 0,-4.94 2.94,-8.22 7.32,-8.22 6.39,0 10.51,4.99 10.51,5.74 0,0.25 -0.39,0.79 -0.79,0.79 -0.21,0 -0.25,-0.06 -0.65,-0.54 -3.68,-4.69 -8.12,-4.89 -8.96,-4.89 -2.69,0 -3.94,2.25 -3.94,5.12 0,2.64 1.34,7.88 2.64,10.27 1.8,3.25 4.28,4.98 6.53,4.98 0.55,0 2.78,-0.09 3.53,-2.14 z"
         inkscape:connector-curvature="0"
         style="fill:#000000;stroke-width:0" /><path
         id="path3701"
         d="m 498.69,412.31 0,0.01 0.01,0.02 0,0.01 0,0.02 0.01,0.01 0,0.01 0,0.02 0,0.01 0.01,0.01 0,0.01 0,0.01 0,0.01 0.01,0.01 0,0.02 0,0 0,0.01 0.01,0.02 0,0.02 0,0.02 0.01,0.01 0,0.01 0.01,0.02 0,0.01 0,0.01 0,0.01 0.01,0.01 0,0.01 0,0.01 0,0 0.01,0.01 0,0.01 0,0 0,0.01 0,0.01 0,0.01 0,0.01 0.01,0.01 c 0,0.53 -0.38,1.05 -1.11,1.05 -1.11,0 -1.47,-1.02 -1.57,-1.5 l -2.26,-9.13 c -0.25,-1.01 -1.89,-3.76 -4.33,-3.76 -1.59,0 -2.3,1.18 -2.3,2.82 0,1.99 1.11,4.88 2.07,7.29 0.23,0.65 0.37,1.04 0.37,1.7 0,1.75 -1.39,2.92 -3.09,2.92 -3.46,0 -5.07,-4.73 -5.07,-5.33 0,-0.45 0.46,-0.45 0.74,-0.45 0.42,0 0.62,0 0.73,0.45 1.08,3.8 2.64,4.36 3.49,4.36 0.59,0 0.87,-0.39 0.87,-1.15 0,-0.8 -0.25,-1.36 -0.87,-3.04 -1.25,-3.26 -1.67,-4.87 -1.67,-6.23 0,-3.48 2.64,-4.31 4.59,-4.31 2.16,0 3.39,1.19 4.39,2.19 0.56,-1.71 2.23,-2.19 3.28,-2.19 1.08,0 1.99,0.51 2.75,1.76 0.84,1.36 1.33,3.46 1.33,3.57 0,0.45 -0.45,0.45 -0.74,0.45 -0.62,0 -0.65,-0.08 -0.87,-0.94 -0.48,-1.81 -1.08,-3.87 -2.36,-3.87 -0.98,0 -1.12,1.04 -1.12,1.64 0,0.59 0,0.65 0.21,1.47 z"
         inkscape:connector-curvature="0"
         style="fill:#000000;stroke-width:0" /></g>  </g>
</svg>
