<?xml version="1.0" encoding="UTF-8" standalone="no"?>
<!-- Created with Inkscape (http://www.inkscape.org/) -->

<svg
   xmlns:dc="http://purl.org/dc/elements/1.1/"
   xmlns:cc="http://creativecommons.org/ns#"
   xmlns:rdf="http://www.w3.org/1999/02/22-rdf-syntax-ns#"
   xmlns:svg="http://www.w3.org/2000/svg"
   xmlns="http://www.w3.org/2000/svg"
   xmlns:sodipodi="http://sodipodi.sourceforge.net/DTD/sodipodi-0.dtd"
   xmlns:inkscape="http://www.inkscape.org/namespaces/inkscape"
   width="541.35052mm"
   height="301.9079mm"
   viewBox="0 0 541.35053 301.9079"
   version="1.1"
   id="svg8"
   inkscape:version="0.92.4 (unknown)"
   sodipodi:docname="octohedral-stresses.svg"
   inkscape:export-filename="/home/krishna/professional/courses/CE394M_Advanced_Analysis_Geotechnical_Engineering/Advanced_Analysis_Geotechnical_Engineering/ce394m/lectures/09_stress_paths_invariants/figs/octohedral-stresses.png"
   inkscape:export-xdpi="97.860001"
   inkscape:export-ydpi="97.860001">
  <defs
     id="defs2">
    <marker
       inkscape:isstock="true"
       style="overflow:visible"
       id="marker3403"
       refX="0"
       refY="0"
       orient="auto"
       inkscape:stockid="Arrow1Lend">
      <path
         transform="matrix(-0.8,0,0,-0.8,-10,0)"
         style="fill:#ff0000;fill-opacity:1;fill-rule:evenodd;stroke:#ff0000;stroke-width:1.00000003pt;stroke-opacity:1"
         d="M 0,0 5,-5 -12.5,0 5,5 Z"
         id="path3401"
         inkscape:connector-curvature="0" />
    </marker>
    <marker
       inkscape:stockid="Arrow1Lend"
       orient="auto"
       refY="0"
       refX="0"
       id="marker3253"
       style="overflow:visible"
       inkscape:isstock="true"
       inkscape:collect="always">
      <path
         id="path3251"
         d="M 0,0 5,-5 -12.5,0 5,5 Z"
         style="fill:#000000;fill-opacity:1;fill-rule:evenodd;stroke:#000000;stroke-width:1.00000003pt;stroke-opacity:1"
         transform="matrix(-0.8,0,0,-0.8,-10,0)"
         inkscape:connector-curvature="0" />
    </marker>
    <marker
       inkscape:isstock="true"
       style="overflow:visible"
       id="marker3151"
       refX="0"
       refY="0"
       orient="auto"
       inkscape:stockid="Arrow1Lend"
       inkscape:collect="always">
      <path
         transform="matrix(-0.8,0,0,-0.8,-10,0)"
         style="fill:#000000;fill-opacity:1;fill-rule:evenodd;stroke:#000000;stroke-width:1.00000003pt;stroke-opacity:1"
         d="M 0,0 5,-5 -12.5,0 5,5 Z"
         id="path3149"
         inkscape:connector-curvature="0" />
    </marker>
    <marker
       inkscape:stockid="Arrow1Lstart"
       orient="auto"
       refY="0"
       refX="0"
       id="marker3069"
       style="overflow:visible"
       inkscape:isstock="true">
      <path
         id="path3067"
         d="M 0,0 5,-5 -12.5,0 5,5 Z"
         style="fill:#000000;fill-opacity:1;fill-rule:evenodd;stroke:#000000;stroke-width:1.00000003pt;stroke-opacity:1"
         transform="matrix(0.8,0,0,0.8,10,0)"
         inkscape:connector-curvature="0" />
    </marker>
    <marker
       inkscape:isstock="true"
       style="overflow:visible"
       id="marker1640"
       refX="0"
       refY="0"
       orient="auto"
       inkscape:stockid="Arrow1Lstart"
       inkscape:collect="always">
      <path
         transform="matrix(0.8,0,0,0.8,10,0)"
         style="fill:#000000;fill-opacity:1;fill-rule:evenodd;stroke:#000000;stroke-width:1.00000003pt;stroke-opacity:1"
         d="M 0,0 5,-5 -12.5,0 5,5 Z"
         id="path1638"
         inkscape:connector-curvature="0" />
    </marker>
    <marker
       inkscape:stockid="Arrow1Lend"
       orient="auto"
       refY="0"
       refX="0"
       id="marker1564"
       style="overflow:visible"
       inkscape:isstock="true"
       inkscape:collect="always">
      <path
         id="path1562"
         d="M 0,0 5,-5 -12.5,0 5,5 Z"
         style="fill:#000000;fill-opacity:1;fill-rule:evenodd;stroke:#000000;stroke-width:1.00000003pt;stroke-opacity:1"
         transform="matrix(-0.8,0,0,-0.8,-10,0)"
         inkscape:connector-curvature="0" />
    </marker>
    <marker
       inkscape:isstock="true"
       style="overflow:visible"
       id="marker1512"
       refX="0"
       refY="0"
       orient="auto"
       inkscape:stockid="Arrow1Lstart">
      <path
         transform="matrix(0.8,0,0,0.8,10,0)"
         style="fill:#000000;fill-opacity:1;fill-rule:evenodd;stroke:#000000;stroke-width:1.00000003pt;stroke-opacity:1"
         d="M 0,0 5,-5 -12.5,0 5,5 Z"
         id="path1510"
         inkscape:connector-curvature="0" />
    </marker>
    <marker
       inkscape:stockid="Arrow1Lstart"
       orient="auto"
       refY="0"
       refX="0"
       id="Arrow1Lstart"
       style="overflow:visible"
       inkscape:isstock="true"
       inkscape:collect="always">
      <path
         id="path836"
         d="M 0,0 5,-5 -12.5,0 5,5 Z"
         style="fill:#000000;fill-opacity:1;fill-rule:evenodd;stroke:#000000;stroke-width:1.00000003pt;stroke-opacity:1"
         transform="matrix(0.8,0,0,0.8,10,0)"
         inkscape:connector-curvature="0" />
    </marker>
    <marker
       inkscape:isstock="true"
       style="overflow:visible"
       id="marker1180"
       refX="0"
       refY="0"
       orient="auto"
       inkscape:stockid="Arrow1Lend"
       inkscape:collect="always">
      <path
         transform="matrix(-0.8,0,0,-0.8,-10,0)"
         style="fill:#000000;fill-opacity:1;fill-rule:evenodd;stroke:#000000;stroke-width:1.00000003pt;stroke-opacity:1"
         d="M 0,0 5,-5 -12.5,0 5,5 Z"
         id="path1178"
         inkscape:connector-curvature="0" />
    </marker>
    <marker
       inkscape:isstock="true"
       style="overflow:visible"
       id="marker1154"
       refX="0"
       refY="0"
       orient="auto"
       inkscape:stockid="Arrow1Lend">
      <path
         transform="matrix(-0.8,0,0,-0.8,-10,0)"
         style="fill:#000000;fill-opacity:1;fill-rule:evenodd;stroke:#000000;stroke-width:1.00000003pt;stroke-opacity:1"
         d="M 0,0 5,-5 -12.5,0 5,5 Z"
         id="path1152"
         inkscape:connector-curvature="0" />
    </marker>
    <marker
       inkscape:stockid="Arrow1Lend"
       orient="auto"
       refY="0"
       refX="0"
       id="Arrow1Lend"
       style="overflow:visible"
       inkscape:isstock="true"
       inkscape:collect="always">
      <path
         id="path839"
         d="M 0,0 5,-5 -12.5,0 5,5 Z"
         style="fill:#000000;fill-opacity:1;fill-rule:evenodd;stroke:#000000;stroke-width:1.00000003pt;stroke-opacity:1"
         transform="matrix(-0.8,0,0,-0.8,-10,0)"
         inkscape:connector-curvature="0" />
    </marker>
    <marker
       inkscape:isstock="true"
       style="overflow:visible"
       id="marker1640-6"
       refX="0"
       refY="0"
       orient="auto"
       inkscape:stockid="Arrow1Lstart">
      <path
         inkscape:connector-curvature="0"
         transform="matrix(0.8,0,0,0.8,10,0)"
         style="fill:#000000;fill-opacity:1;fill-rule:evenodd;stroke:#000000;stroke-width:1.00000003pt;stroke-opacity:1"
         d="M 0,0 5,-5 -12.5,0 5,5 Z"
         id="path1638-7" />
    </marker>
    <marker
       inkscape:stockid="Arrow1Lend"
       orient="auto"
       refY="0"
       refX="0"
       id="marker1564-5"
       style="overflow:visible"
       inkscape:isstock="true">
      <path
         inkscape:connector-curvature="0"
         id="path1562-3"
         d="M 0,0 5,-5 -12.5,0 5,5 Z"
         style="fill:#000000;fill-opacity:1;fill-rule:evenodd;stroke:#000000;stroke-width:1.00000003pt;stroke-opacity:1"
         transform="matrix(-0.8,0,0,-0.8,-10,0)" />
    </marker>
    <marker
       inkscape:isstock="true"
       style="overflow:visible"
       id="marker3403-6"
       refX="0"
       refY="0"
       orient="auto"
       inkscape:stockid="Arrow1Lend">
      <path
         inkscape:connector-curvature="0"
         transform="matrix(-0.8,0,0,-0.8,-10,0)"
         style="fill:#ff0000;fill-opacity:1;fill-rule:evenodd;stroke:#ff0000;stroke-width:1.00000003pt;stroke-opacity:1"
         d="M 0,0 5,-5 -12.5,0 5,5 Z"
         id="path3401-2" />
    </marker>
  </defs>
  <sodipodi:namedview
     id="base"
     pagecolor="#ffffff"
     bordercolor="#666666"
     borderopacity="1.0"
     inkscape:pageopacity="0.0"
     inkscape:pageshadow="2"
     inkscape:zoom="0.68086912"
     inkscape:cx="1036.3404"
     inkscape:cy="270.69387"
     inkscape:document-units="mm"
     inkscape:current-layer="g223"
     showgrid="true"
     inkscape:window-width="1920"
     inkscape:window-height="2031"
     inkscape:window-x="0"
     inkscape:window-y="55"
     inkscape:window-maximized="0"
     fit-margin-top="0"
     fit-margin-left="0"
     fit-margin-right="0"
     fit-margin-bottom="0">
    <inkscape:grid
       type="xygrid"
       id="grid10"
       originx="250.88562"
       originy="-110.84208" />
  </sodipodi:namedview>
  <metadata
     id="metadata5">
    <rdf:RDF>
      <cc:Work
         rdf:about="">
        <dc:format>image/svg+xml</dc:format>
        <dc:type
           rdf:resource="http://purl.org/dc/dcmitype/StillImage" />
        <dc:title />
      </cc:Work>
    </rdf:RDF>
  </metadata>
  <g
     inkscape:label="Layer 1"
     inkscape:groupmode="layer"
     id="layer1"
     transform="translate(250.88562,115.75)">
    <path
       style="fill:none;stroke:#000000;stroke-width:0.69999999;stroke-linecap:butt;stroke-linejoin:miter;stroke-miterlimit:4;stroke-dasharray:none;stroke-opacity:1;marker-end:url(#Arrow1Lend)"
       d="M 211.66667,109.14583 V 29.770825"
       id="path12"
       inkscape:connector-curvature="0"
       inkscape:export-xdpi="97.860001"
       inkscape:export-ydpi="97.860001" />
    <path
       style="fill:none;stroke:#000000;stroke-width:0.69999999;stroke-linecap:butt;stroke-linejoin:miter;stroke-miterlimit:4;stroke-dasharray:none;stroke-opacity:1;marker-end:url(#marker1180)"
       d="M 211.66667,109.14583 142.875,164.70833"
       id="path14"
       inkscape:connector-curvature="0"
       inkscape:export-xdpi="97.860001"
       inkscape:export-ydpi="97.860001" />
    <path
       style="fill:none;stroke:#000000;stroke-width:0.69999999;stroke-linecap:butt;stroke-linejoin:miter;stroke-miterlimit:4;stroke-dasharray:none;stroke-opacity:1;marker-start:url(#Arrow1Lstart)"
       d="m 280.45833,164.70833 -68.79166,-55.5625"
       id="path14-3"
       inkscape:connector-curvature="0"
       inkscape:export-xdpi="97.860001"
       inkscape:export-ydpi="97.860001" />
    <path
       style="fill:none;stroke:#000000;stroke-width:0.60231549;stroke-linecap:butt;stroke-linejoin:miter;stroke-miterlimit:4;stroke-dasharray:none;stroke-opacity:1;marker-start:url(#marker1640);marker-end:url(#marker1564)"
       d="M 113.92602,165.2044 H -6.8460448 V 42.810359"
       id="path1502"
       inkscape:connector-curvature="0"
       inkscape:export-xdpi="97.860001"
       inkscape:export-ydpi="97.860001" />
    <path
       style="fill:none;stroke:#000000;stroke-width:0.73544228;stroke-linecap:butt;stroke-linejoin:miter;stroke-miterlimit:4;stroke-dasharray:none;stroke-opacity:1;marker-start:url(#marker1640-6);marker-end:url(#marker1564-5)"
       d="M -52.734411,165.18463 H -232.83333 V 42.817925"
       id="path1502-5"
       inkscape:connector-curvature="0"
       inkscape:export-xdpi="97.860001"
       inkscape:export-ydpi="97.860001" />
    <rect
       style="opacity:1;fill:none;fill-opacity:1;fill-rule:nonzero;stroke:#000000;stroke-width:1;stroke-miterlimit:4;stroke-dasharray:none;stroke-dashoffset:0;stroke-opacity:1"
       id="rect3057"
       width="42.333332"
       height="74.083336"
       x="3.7041314"
       y="-78.708336"
       inkscape:export-xdpi="97.860001"
       inkscape:export-ydpi="97.860001" />
    <path
       style="fill:none;stroke:#000000;stroke-width:0.85000002;stroke-linecap:butt;stroke-linejoin:miter;stroke-miterlimit:4;stroke-dasharray:none;stroke-opacity:1;marker-end:url(#marker3151)"
       d="m 24.870798,-115.75 v 37.041669"
       id="path3059"
       inkscape:connector-curvature="0"
       inkscape:export-xdpi="97.860001"
       inkscape:export-ydpi="97.860001" />
    <path
       style="fill:none;stroke:#000000;stroke-width:0.85000002;stroke-linecap:butt;stroke-linejoin:miter;stroke-miterlimit:4;stroke-dasharray:none;stroke-opacity:1;marker-end:url(#marker3253)"
       d="M 83.078916,-41.666665 H 46.037466"
       id="path3231"
       inkscape:connector-curvature="0"
       inkscape:export-xdpi="97.860001"
       inkscape:export-ydpi="97.860001" />
    <g
       id="g5199"
       transform="translate(-27.525434,-262.51935)"
       inkscape:export-xdpi="97.860001"
       inkscape:export-ydpi="97.860001">
      <g
         word-spacing="normal"
         letter-spacing="normal"
         font-size-adjust="none"
         font-stretch="normal"
         font-weight="normal"
         font-variant="normal"
         font-style="normal"
         stroke-miterlimit="10.433"
         xml:space="preserve"
         transform="matrix(0.40667053,0,0,-0.40667053,-71.167343,388.56272)"
         id="g5197"
         style="font-style:normal;font-variant:normal;font-weight:normal;font-stretch:normal;letter-spacing:normal;word-spacing:normal;text-anchor:start;fill:none;fill-opacity:1;fill-rule:evenodd;stroke:#000000;stroke-linecap:butt;stroke-linejoin:miter;stroke-miterlimit:10.43299961;stroke-dasharray:none;stroke-dashoffset:0;stroke-opacity:1"><path
           id="path5177"
           d="m 481.33,424.78 h 0.07 0.07 0.07 0.08 0.09 l 0.09,0.01 h 0.09 l 0.09,0.01 0.1,0.01 0.1,0.02 0.1,0.02 0.11,0.02 0.1,0.02 0.1,0.03 0.1,0.03 0.1,0.04 0.1,0.04 0.1,0.05 0.09,0.05 0.09,0.06 0.08,0.07 0.08,0.07 0.04,0.04 0.04,0.04 0.03,0.04 0.04,0.05 0.03,0.04 0.03,0.05 0.03,0.05 0.03,0.05 0.03,0.05 0.02,0.06 0.02,0.06 0.02,0.06 0.02,0.06 0.02,0.06 0.01,0.07 0.01,0.07 0.01,0.07 v 0.08 l 0.01,0.07 v 0.08 c 0,1.19 -1.05,1.19 -1.94,1.19 h -11.36 c -7.53,0 -13.06,-8.22 -13.06,-14.14 0,-4.39 2.94,-7.88 7.47,-7.88 l 0.06,1.1 c -2.45,0 -4.44,1.79 -4.44,5.37 0,1.5 0.6,5.59 2.35,8.53 2.09,3.44 5.08,4.13 6.76,4.13 4.19,0 4.6,-3.28 4.6,-4.83 0,-2.34 -1,-6.42 -2.69,-8.97 -1.95,-2.94 -4.64,-4.23 -6.58,-4.23 v 0 l -0.06,-1.1 c 5.89,0 12.51,6.03 12.51,13.71 0,0.84 0,3.23 -1.54,5.42 z"
           inkscape:connector-curvature="0"
           style="fill:#000000;stroke-width:0" /><path
           id="path5179"
           d="m 492.15,405.79 v 0.02 0.01 l 0.01,0.02 v 0.03 l 0.01,0.03 0.01,0.03 v 0.03 l 0.01,0.04 0.01,0.04 0.01,0.05 0.02,0.04 0.01,0.06 0.01,0.05 0.01,0.05 0.03,0.12 0.04,0.13 0.03,0.13 0.04,0.15 0.03,0.14 0.04,0.15 0.04,0.15 0.08,0.32 0.08,0.31 0.04,0.15 0.04,0.15 0.04,0.14 0.03,0.14 0.04,0.14 0.03,0.12 0.03,0.12 0.02,0.05 0.01,0.05 0.01,0.05 0.02,0.05 0.01,0.04 0.01,0.04 0.01,0.04 0.01,0.03 0.01,0.03 v 0.03 l 0.01,0.02 0.01,0.02 v 0.01 0.01 c 0.08,0.29 1.08,2.02 2.21,2.86 0.37,0.27 1.31,0.97 2.81,0.97 0.34,0 1.22,-0.03 1.92,-0.48 -1.12,-0.31 -1.53,-1.3 -1.53,-1.92 0,-0.77 0.59,-1.29 1.39,-1.29 0.8,0 1.95,0.66 1.95,2.13 0,1.81 -1.92,2.53 -3.7,2.53 -1.81,0 -3.37,-0.72 -4.9,-2.47 -0.63,2.13 -2.75,2.47 -3.6,2.47 -1.28,0 -2.15,-0.8 -2.72,-1.76 -0.79,-1.36 -1.28,-3.4 -1.28,-3.57 0,-0.45 0.49,-0.45 0.6,-0.45 0.48,0 0.51,0.11 0.76,1.05 0.52,2.12 1.19,3.76 2.55,3.76 0.9,0 1.14,-0.76 1.14,-1.7 0,-0.67 -0.31,-1.95 -0.56,-2.89 -0.24,-0.95 -0.58,-2.38 -0.77,-3.14 l -1.11,-4.47 c -0.14,-0.44 -0.34,-1.31 -0.34,-1.42 0,-0.77 0.62,-1.11 1.18,-1.11 0.52,0 1.22,0.31 1.49,1 0.08,0.22 0.45,1.75 0.67,2.62 z"
           inkscape:connector-curvature="0"
           style="fill:#000000;stroke-width:0" /><path
           id="path5181"
           d="m 554.2,422.5 h 0.14 0.14 0.14 l 0.08,0.01 h 0.07 l 0.07,0.01 0.07,0.01 0.07,0.01 0.07,0.01 0.07,0.01 0.07,0.02 0.06,0.02 0.06,0.02 0.07,0.02 0.05,0.03 0.06,0.03 0.05,0.04 0.05,0.03 0.05,0.05 0.04,0.04 0.04,0.05 0.02,0.03 0.02,0.03 0.01,0.02 0.02,0.03 0.01,0.03 0.02,0.04 0.01,0.03 0.01,0.04 0.01,0.03 0.01,0.04 0.01,0.04 v 0.04 l 0.01,0.04 v 0.04 0.04 0.05 c 0,1 -0.95,1 -1.64,1 H 524.4 c -0.7,0 -1.64,0 -1.64,-1 0,-0.98 0.94,-0.98 1.69,-0.98 z"
           inkscape:connector-curvature="0"
           style="fill:#000000;stroke-width:0" /><path
           id="path5183"
           d="m 554.24,412.82 h 0.07 0.06 l 0.14,0.01 h 0.14 0.07 l 0.07,0.01 0.07,0.01 h 0.07 l 0.07,0.01 0.06,0.02 0.07,0.01 0.07,0.02 0.06,0.02 0.06,0.02 0.06,0.02 0.06,0.03 0.05,0.03 0.06,0.04 0.04,0.04 0.05,0.04 0.04,0.05 0.02,0.02 0.02,0.03 0.02,0.02 0.02,0.03 0.02,0.03 0.01,0.03 0.01,0.03 0.02,0.03 0.01,0.04 0.01,0.03 0.01,0.04 0.01,0.04 0.01,0.04 v 0.04 l 0.01,0.04 v 0.04 0.05 0.04 c 0,1 -0.95,1 -1.68,1 h -29.75 c -0.75,0 -1.69,0 -1.69,-1 0,-1 0.94,-1 1.64,-1 z"
           inkscape:connector-curvature="0"
           style="fill:#000000;stroke-width:0" /><path
           id="path5185"
           d="m 598.33,424.78 h 0.07 0.06 0.08 0.08 0.09 l 0.09,0.01 h 0.09 l 0.09,0.01 0.1,0.01 0.1,0.02 0.1,0.02 0.11,0.02 0.1,0.02 0.1,0.03 0.1,0.03 0.1,0.04 0.1,0.04 0.1,0.05 0.09,0.05 0.09,0.06 0.08,0.07 0.08,0.07 0.04,0.04 0.04,0.04 0.03,0.04 0.04,0.05 0.03,0.04 0.03,0.05 0.03,0.05 0.03,0.05 0.03,0.05 0.02,0.06 0.02,0.06 0.02,0.06 0.02,0.06 0.02,0.06 0.01,0.07 0.01,0.07 0.01,0.07 v 0.08 l 0.01,0.07 v 0.08 c 0,1.19 -1.05,1.19 -1.94,1.19 h -11.36 c -7.53,0 -13.06,-8.22 -13.06,-14.14 0,-4.39 2.94,-7.88 7.47,-7.88 l 0.06,1.1 c -2.45,0 -4.44,1.79 -4.44,5.37 0,1.5 0.6,5.59 2.35,8.53 2.09,3.44 5.08,4.13 6.76,4.13 4.19,0 4.6,-3.28 4.6,-4.83 0,-2.34 -1,-6.42 -2.69,-8.97 -1.95,-2.94 -4.64,-4.23 -6.58,-4.23 v 0 l -0.06,-1.1 c 5.89,0 12.52,6.03 12.52,13.71 0,0.84 0,3.23 -1.55,5.42 z"
           inkscape:connector-curvature="0"
           style="fill:#000000;stroke-width:0" /><path
           id="path5187"
           d="m 610.48,410.4 h 0.25 l 0.25,-0.02 0.24,-0.03 0.24,-0.04 0.23,-0.05 0.23,-0.06 0.22,-0.07 0.21,-0.08 0.21,-0.1 0.2,-0.1 0.2,-0.12 0.19,-0.12 0.18,-0.14 0.18,-0.15 0.16,-0.16 0.16,-0.17 0.15,-0.18 0.15,-0.19 0.13,-0.2 0.13,-0.22 0.11,-0.22 0.11,-0.24 0.1,-0.24 0.09,-0.26 0.08,-0.27 0.07,-0.28 0.06,-0.29 0.05,-0.3 0.04,-0.31 0.03,-0.32 0.01,-0.33 0.01,-0.35 c 0,-4.33 -2.52,-5.61 -4.53,-5.61 -1.39,0 -4.47,0.38 -5.92,2.44 1.62,0.06 2.01,1.22 2.01,1.95 0,1.11 -0.84,1.91 -1.92,1.91 -0.97,0 -1.95,-0.59 -1.95,-2.02 0,-3.28 3.62,-5.4 7.84,-5.4 4.84,0 8.19,3.25 8.19,6.73 0,2.72 -2.22,5.44 -6.07,6.24 3.66,1.33 4.99,3.93 4.99,6.06 0,2.75 -3.17,4.81 -7.03,4.81 -3.88,0 -6.83,-1.89 -6.83,-4.67 0,-1.19 0.77,-1.84 1.81,-1.84 1.08,0 1.77,0.79 1.77,1.76 0,1.02 -0.69,1.75 -1.77,1.81 1.22,1.55 3.61,1.93 4.91,1.93 1.56,0 3.76,-0.77 3.76,-3.8 0,-1.47 -0.48,-3.06 -1.39,-4.14 -1.15,-1.33 -2.12,-1.41 -3.87,-1.5 -0.88,-0.08 -0.94,-0.08 -1.11,-0.11 -0.08,0 -0.36,-0.06 -0.36,-0.45 0,-0.49 0.31,-0.49 0.91,-0.49 z"
           inkscape:connector-curvature="0"
           style="fill:#000000;stroke-width:0" /><path
           id="path5189"
           d="m 671.43,422.5 h 0.14 0.15 0.14 l 0.07,0.01 h 0.08 l 0.07,0.01 0.07,0.01 0.07,0.01 0.07,0.01 0.07,0.01 0.06,0.02 0.07,0.02 0.06,0.02 0.06,0.02 0.06,0.03 0.06,0.03 0.05,0.04 0.05,0.03 0.05,0.05 0.04,0.04 0.04,0.05 0.02,0.03 0.02,0.03 0.01,0.02 0.02,0.03 0.01,0.03 0.02,0.04 0.01,0.03 0.01,0.04 0.01,0.03 0.01,0.04 v 0.04 l 0.01,0.04 v 0.04 l 0.01,0.04 v 0.04 0.05 c 0,1 -0.95,1 -1.64,1 h -29.84 c -0.71,0 -1.64,0 -1.64,-1 0,-0.98 0.93,-0.98 1.68,-0.98 z"
           inkscape:connector-curvature="0"
           style="fill:#000000;stroke-width:0" /><path
           id="path5191"
           d="m 671.48,412.82 h 0.07 0.06 l 0.14,0.01 h 0.14 0.07 l 0.07,0.01 0.07,0.01 h 0.07 l 0.06,0.01 0.07,0.02 0.07,0.01 0.06,0.02 0.07,0.02 0.06,0.02 0.06,0.02 0.06,0.03 0.05,0.03 0.05,0.04 0.05,0.04 0.05,0.04 0.04,0.05 0.02,0.02 0.02,0.03 0.02,0.02 0.02,0.03 0.01,0.03 0.02,0.03 0.01,0.03 0.02,0.03 0.01,0.04 0.01,0.03 0.01,0.04 0.01,0.04 v 0.04 l 0.01,0.04 v 0.04 l 0.01,0.04 v 0.05 0.04 c 0,1 -0.95,1 -1.69,1 h -29.75 c -0.75,0 -1.68,0 -1.68,-1 0,-1 0.93,-1 1.64,-1 z"
           inkscape:connector-curvature="0"
           style="fill:#000000;stroke-width:0" /><path
           id="path5193"
           d="m 715.57,424.78 h 0.06 0.07 0.08 0.08 0.08 l 0.09,0.01 h 0.1 l 0.09,0.01 0.1,0.01 0.1,0.02 0.1,0.02 0.1,0.02 0.11,0.02 0.1,0.03 0.1,0.03 0.1,0.04 0.1,0.04 0.09,0.05 0.1,0.05 0.09,0.06 0.08,0.07 0.08,0.07 0.04,0.04 0.04,0.04 0.03,0.04 0.04,0.05 0.03,0.04 0.03,0.05 0.03,0.05 0.03,0.05 0.02,0.05 0.03,0.06 0.02,0.06 0.02,0.06 0.02,0.06 0.01,0.06 0.02,0.07 0.01,0.07 0.01,0.07 v 0.08 l 0.01,0.07 v 0.08 c 0,1.19 -1.05,1.19 -1.94,1.19 h -11.36 c -7.53,0 -13.06,-8.22 -13.06,-14.14 0,-4.39 2.94,-7.88 7.47,-7.88 l 0.06,1.1 c -2.45,0 -4.44,1.79 -4.44,5.37 0,1.5 0.6,5.59 2.35,8.53 2.09,3.44 5.07,4.13 6.76,4.13 4.19,0 4.6,-3.28 4.6,-4.83 0,-2.34 -1,-6.42 -2.69,-8.97 -1.96,-2.94 -4.64,-4.23 -6.58,-4.23 v 0 l -0.06,-1.1 c 5.89,0 12.51,6.03 12.51,13.71 0,0.84 0,3.23 -1.54,5.42 z"
           inkscape:connector-curvature="0"
           style="fill:#000000;stroke-width:0" /><path
           id="path5195"
           d="m 729.1,421.9 0.01,0.01 v 0 0 0.01 0 l 0.01,0.01 v 0.01 0 0.01 0.01 l 0.01,0.01 0.01,0.02 v 0.02 l 0.01,0.02 v 0.02 l 0.01,0.02 v 0.02 l 0.01,0.03 0.01,0.02 0.01,0.05 0.01,0.04 v 0.03 l 0.01,0.02 v 0.02 l 0.01,0.02 v 0.02 l 0.01,0.02 v 0.02 l 0.01,0.01 v 0.01 0.01 0 0.01 0 0.01 0 0.01 h 0.01 v 0 0.01 0 c 0,0.19 -0.15,0.5 -0.57,0.5 -0.68,0 -3.58,-0.28 -4.45,-0.36 -0.28,-0.03 -0.76,-0.06 -0.76,-0.8 0,-0.48 0.48,-0.48 0.9,-0.48 1.67,0 1.67,-0.25 1.67,-0.53 0,-0.24 -0.07,-0.46 -0.14,-0.77 l -4.92,-19.72 c -0.17,-0.62 -0.17,-0.68 -0.17,-0.76 0,-0.52 0.42,-1.11 1.19,-1.11 0.39,0 1.04,0.17 1.43,0.9 0.1,0.21 0.41,1.46 0.58,2.19 l 0.81,3.11 c 0.1,0.52 0.46,1.84 0.55,2.36 0.36,1.33 0.36,1.36 1.05,2.48 1.12,1.71 2.86,3.69 5.58,3.69 1.95,0 2.06,-1.61 2.06,-2.44 0,-2.09 -1.5,-5.95 -2.06,-7.42 -0.38,-0.98 -0.52,-1.29 -0.52,-1.89 0,-1.84 1.53,-2.98 3.3,-2.98 3.5,0 5.03,4.79 5.03,5.33 0,0.45 -0.46,0.45 -0.56,0.45 -0.49,0 -0.53,-0.2 -0.66,-0.59 -0.81,-2.79 -2.34,-4.22 -3.7,-4.22 -0.74,0 -0.88,0.48 -0.88,1.22 0,0.79 0.19,1.25 0.81,2.82 0.41,1.08 1.85,4.77 1.85,6.72 0,0.56 0,2.03 -1.3,3.03 -0.59,0.46 -1.59,0.94 -3.23,0.94 -2.55,0 -4.39,-1.39 -5.67,-2.89 z"
           inkscape:connector-curvature="0"
           style="fill:#000000;stroke-width:0" /></g>    </g>
    <g
       id="g5480"
       transform="translate(-172.61767,-40.525554)"
       inkscape:export-xdpi="97.860001"
       inkscape:export-ydpi="97.860001">
      <g
         word-spacing="normal"
         letter-spacing="normal"
         font-size-adjust="none"
         font-stretch="normal"
         font-weight="normal"
         font-variant="normal"
         font-style="normal"
         stroke-miterlimit="10.433"
         xml:space="preserve"
         transform="matrix(0.40667053,0,0,-0.40667053,-71.167343,388.56272)"
         id="g5478"
         style="font-style:normal;font-variant:normal;font-weight:normal;font-stretch:normal;letter-spacing:normal;word-spacing:normal;text-anchor:start;fill:none;fill-opacity:1;fill-rule:evenodd;stroke:#000000;stroke-linecap:butt;stroke-linejoin:miter;stroke-miterlimit:10.43299961;stroke-dasharray:none;stroke-dashoffset:0;stroke-opacity:1"><path
           id="path5476"
           d="m 481.33,424.78 h 0.07 0.07 0.07 0.08 0.09 l 0.09,0.01 h 0.09 l 0.09,0.01 0.1,0.01 0.1,0.02 0.1,0.02 0.11,0.02 0.1,0.02 0.1,0.03 0.1,0.03 0.1,0.04 0.1,0.04 0.1,0.05 0.09,0.05 0.09,0.06 0.08,0.07 0.08,0.07 0.04,0.04 0.04,0.04 0.03,0.04 0.04,0.05 0.03,0.04 0.03,0.05 0.03,0.05 0.03,0.05 0.03,0.05 0.02,0.06 0.02,0.06 0.02,0.06 0.02,0.06 0.02,0.06 0.01,0.07 0.01,0.07 0.01,0.07 v 0.08 l 0.01,0.07 v 0.08 c 0,1.19 -1.05,1.19 -1.94,1.19 h -11.36 c -7.53,0 -13.06,-8.22 -13.06,-14.14 0,-4.39 2.94,-7.88 7.47,-7.88 l 0.06,1.1 c -2.45,0 -4.44,1.79 -4.44,5.37 0,1.5 0.6,5.59 2.35,8.53 2.09,3.44 5.08,4.13 6.76,4.13 4.19,0 4.6,-3.28 4.6,-4.83 0,-2.34 -1,-6.42 -2.69,-8.97 -1.95,-2.94 -4.64,-4.23 -6.58,-4.23 v 0 l -0.06,-1.1 c 5.89,0 12.51,6.03 12.51,13.71 0,0.84 0,3.23 -1.54,5.42 z"
           inkscape:connector-curvature="0"
           style="fill:#000000;stroke-width:0" /></g>    </g>
    <g
       id="g5575"
       transform="translate(-365.50978,-167.52555)"
       inkscape:export-xdpi="97.860001"
       inkscape:export-ydpi="97.860001">
      <g
         word-spacing="normal"
         letter-spacing="normal"
         font-size-adjust="none"
         font-stretch="normal"
         font-weight="normal"
         font-variant="normal"
         font-style="normal"
         stroke-miterlimit="10.433"
         xml:space="preserve"
         transform="matrix(0.40667053,0,0,-0.40667053,-71.167343,388.56272)"
         id="g5573"
         style="font-style:normal;font-variant:normal;font-weight:normal;font-stretch:normal;letter-spacing:normal;word-spacing:normal;text-anchor:start;fill:none;fill-opacity:1;fill-rule:evenodd;stroke:#000000;stroke-linecap:butt;stroke-linejoin:miter;stroke-miterlimit:10.43299961;stroke-dasharray:none;stroke-dashoffset:0;stroke-opacity:1"><path
           id="path5571"
           d="m 470.16,424.78 h 8.38 c 0.65,0 2.43,0 2.43,1.7 0,1.19 -1.04,1.19 -1.98,1.19 h -13.95 c -1,0 -2.94,0 -5.13,-2.35 -1.66,-1.78 -3.05,-4.17 -3.05,-4.48 0,-0.05 0,-0.48 0.6,-0.48 0.4,0 0.5,0.18 0.79,0.59 2.46,3.83 5.29,3.83 6.33,3.83 h 4.14 l -4.89,-15.99 c -0.19,-0.59 -0.48,-1.64 -0.48,-1.84 0,-0.55 0.34,-1.34 1.44,-1.34 1.64,0 1.89,1.39 2.04,2.14 z"
           inkscape:connector-curvature="0"
           style="fill:#000000;stroke-width:0" /></g>    </g>
    <g
       id="g6139"
       transform="translate(-144.3684,-164.27449)"
       inkscape:export-xdpi="97.860001"
       inkscape:export-ydpi="97.860001">
      <g
         word-spacing="normal"
         letter-spacing="normal"
         font-size-adjust="none"
         font-stretch="normal"
         font-weight="normal"
         font-variant="normal"
         font-style="normal"
         stroke-miterlimit="10.433"
         xml:space="preserve"
         transform="matrix(0.40667053,0,0,-0.40667053,-71.167343,388.56272)"
         id="g6137"
         style="font-style:normal;font-variant:normal;font-weight:normal;font-stretch:normal;letter-spacing:normal;word-spacing:normal;text-anchor:start;fill:none;fill-opacity:1;fill-rule:evenodd;stroke:#000000;stroke-linecap:butt;stroke-linejoin:miter;stroke-miterlimit:10.43299961;stroke-dasharray:none;stroke-dashoffset:0;stroke-opacity:1"><path
           id="path6133"
           d="m 481.33,424.78 h 0.07 0.07 0.07 0.08 0.09 l 0.09,0.01 h 0.09 l 0.09,0.01 0.1,0.01 0.1,0.02 0.1,0.02 0.11,0.02 0.1,0.02 0.1,0.03 0.1,0.03 0.1,0.04 0.1,0.04 0.1,0.05 0.09,0.05 0.09,0.06 0.08,0.07 0.08,0.07 0.04,0.04 0.04,0.04 0.03,0.04 0.04,0.05 0.03,0.04 0.03,0.05 0.03,0.05 0.03,0.05 0.03,0.05 0.02,0.06 0.02,0.06 0.02,0.06 0.02,0.06 0.02,0.06 0.01,0.07 0.01,0.07 0.01,0.07 v 0.08 l 0.01,0.07 v 0.08 c 0,1.19 -1.05,1.19 -1.94,1.19 h -11.36 c -7.53,0 -13.06,-8.22 -13.06,-14.14 0,-4.39 2.94,-7.88 7.47,-7.88 l 0.06,1.1 c -2.45,0 -4.44,1.79 -4.44,5.37 0,1.5 0.6,5.59 2.35,8.53 2.09,3.44 5.08,4.13 6.76,4.13 4.19,0 4.6,-3.28 4.6,-4.83 0,-2.34 -1,-6.42 -2.69,-8.97 -1.95,-2.94 -4.64,-4.23 -6.58,-4.23 v 0 l -0.06,-1.1 c 5.89,0 12.51,6.03 12.51,13.71 0,0.84 0,3.23 -1.54,5.42 z"
           inkscape:connector-curvature="0"
           style="fill:#000000;stroke-width:0" /><path
           id="path6135"
           d="m 495.63,420.92 v 0.04 0.04 0.05 0.04 0.03 0.04 0.04 0.03 0.04 0.03 l -0.01,0.03 v 0.03 0.03 l -0.01,0.03 v 0.03 0.02 l -0.01,0.03 v 0.02 l -0.01,0.03 v 0.02 l -0.01,0.04 -0.02,0.04 -0.02,0.03 -0.02,0.03 -0.02,0.03 -0.02,0.03 -0.03,0.02 -0.03,0.02 -0.03,0.02 -0.04,0.01 -0.04,0.01 -0.05,0.02 h -0.02 -0.02 l -0.03,0.01 h -0.03 l -0.02,0.01 h -0.03 -0.03 -0.03 -0.03 l -0.04,0.01 h -0.03 -0.04 -0.03 -0.04 -0.04 -0.04 -0.04 -0.04 -0.05 -0.04 c -2.24,-2.2 -5.39,-2.23 -6.83,-2.23 v -1.25 c 0.84,0 3.14,0 5.04,0.97 v -17.77 c 0,-1.16 0,-1.61 -3.48,-1.61 h -1.31 v -1.25 c 0.62,0.03 4.9,0.14 6.2,0.14 1.08,0 5.47,-0.11 6.24,-0.14 v 1.25 h -1.33 c -3.49,0 -3.49,0.45 -3.49,1.61 z"
           inkscape:connector-curvature="0"
           style="fill:#000000;stroke-width:0" /></g>    </g>
    <g
       id="g6264"
       transform="translate(-21.805172,-40.52555)"
       inkscape:export-xdpi="97.860001"
       inkscape:export-ydpi="97.860001">
      <g
         word-spacing="normal"
         letter-spacing="normal"
         font-size-adjust="none"
         font-stretch="normal"
         font-weight="normal"
         font-variant="normal"
         font-style="normal"
         stroke-miterlimit="10.433"
         xml:space="preserve"
         transform="matrix(0.40667053,0,0,-0.40667053,-71.167343,388.56272)"
         id="g6262"
         style="font-style:normal;font-variant:normal;font-weight:normal;font-stretch:normal;letter-spacing:normal;word-spacing:normal;text-anchor:start;fill:none;fill-opacity:1;fill-rule:evenodd;stroke:#000000;stroke-linecap:butt;stroke-linejoin:miter;stroke-miterlimit:10.43299961;stroke-dasharray:none;stroke-dashoffset:0;stroke-opacity:1"><path
           id="path6258"
           d="m 481.33,424.78 h 0.07 0.07 0.07 0.08 0.09 l 0.09,0.01 h 0.09 l 0.09,0.01 0.1,0.01 0.1,0.02 0.1,0.02 0.11,0.02 0.1,0.02 0.1,0.03 0.1,0.03 0.1,0.04 0.1,0.04 0.1,0.05 0.09,0.05 0.09,0.06 0.08,0.07 0.08,0.07 0.04,0.04 0.04,0.04 0.03,0.04 0.04,0.05 0.03,0.04 0.03,0.05 0.03,0.05 0.03,0.05 0.03,0.05 0.02,0.06 0.02,0.06 0.02,0.06 0.02,0.06 0.02,0.06 0.01,0.07 0.01,0.07 0.01,0.07 v 0.08 l 0.01,0.07 v 0.08 c 0,1.19 -1.05,1.19 -1.94,1.19 h -11.36 c -7.53,0 -13.06,-8.22 -13.06,-14.14 0,-4.39 2.94,-7.88 7.47,-7.88 l 0.06,1.1 c -2.45,0 -4.44,1.79 -4.44,5.37 0,1.5 0.6,5.59 2.35,8.53 2.09,3.44 5.08,4.13 6.76,4.13 4.19,0 4.6,-3.28 4.6,-4.83 0,-2.34 -1,-6.42 -2.69,-8.97 -1.95,-2.94 -4.64,-4.23 -6.58,-4.23 v 0 l -0.06,-1.1 c 5.89,0 12.51,6.03 12.51,13.71 0,0.84 0,3.23 -1.54,5.42 z"
           inkscape:connector-curvature="0"
           style="fill:#000000;stroke-width:0" /><path
           id="path6260"
           d="m 493.48,410.4 h 0.25 l 0.25,-0.02 0.24,-0.03 0.24,-0.04 0.23,-0.05 0.23,-0.06 0.22,-0.07 0.21,-0.08 0.21,-0.1 0.2,-0.1 0.2,-0.12 0.19,-0.12 0.18,-0.14 0.18,-0.15 0.16,-0.16 0.16,-0.17 0.15,-0.18 0.15,-0.19 0.13,-0.2 0.13,-0.22 0.11,-0.22 0.11,-0.24 0.1,-0.24 0.09,-0.26 0.08,-0.27 0.07,-0.28 0.06,-0.29 0.05,-0.3 0.04,-0.31 0.03,-0.32 0.01,-0.33 0.01,-0.35 c 0,-4.33 -2.52,-5.61 -4.53,-5.61 -1.39,0 -4.47,0.38 -5.92,2.44 1.62,0.06 2.01,1.22 2.01,1.95 0,1.11 -0.84,1.91 -1.92,1.91 -0.97,0 -1.95,-0.59 -1.95,-2.02 0,-3.28 3.62,-5.4 7.84,-5.4 4.84,0 8.19,3.25 8.19,6.73 0,2.72 -2.22,5.44 -6.07,6.24 3.66,1.33 4.99,3.93 4.99,6.06 0,2.75 -3.17,4.81 -7.03,4.81 -3.88,0 -6.83,-1.89 -6.83,-4.67 0,-1.19 0.77,-1.84 1.81,-1.84 1.08,0 1.77,0.79 1.77,1.76 0,1.02 -0.69,1.75 -1.77,1.81 1.22,1.55 3.61,1.93 4.91,1.93 1.56,0 3.76,-0.77 3.76,-3.8 0,-1.47 -0.48,-3.06 -1.39,-4.14 -1.15,-1.33 -2.12,-1.41 -3.87,-1.5 -0.88,-0.08 -0.94,-0.08 -1.11,-0.11 -0.08,0 -0.36,-0.06 -0.36,-0.45 0,-0.49 0.31,-0.49 0.91,-0.49 z"
           inkscape:connector-curvature="0"
           style="fill:#000000;stroke-width:0" /></g>    </g>
    <g
       id="g6393"
       transform="translate(157.5365,-42.512577)"
       inkscape:export-xdpi="97.860001"
       inkscape:export-ydpi="97.860001">
      <g
         word-spacing="normal"
         letter-spacing="normal"
         font-size-adjust="none"
         font-stretch="normal"
         font-weight="normal"
         font-variant="normal"
         font-style="normal"
         stroke-miterlimit="10.433"
         xml:space="preserve"
         transform="matrix(0.40667053,0,0,-0.40667053,-71.167343,388.56272)"
         id="g6391"
         style="font-style:normal;font-variant:normal;font-weight:normal;font-stretch:normal;letter-spacing:normal;word-spacing:normal;text-anchor:start;fill:none;fill-opacity:1;fill-rule:evenodd;stroke:#000000;stroke-linecap:butt;stroke-linejoin:miter;stroke-miterlimit:10.43299961;stroke-dasharray:none;stroke-dashoffset:0;stroke-opacity:1"><path
           id="path6387"
           d="m 481.33,424.78 h 0.07 0.07 0.07 0.08 0.09 l 0.09,0.01 h 0.09 l 0.09,0.01 0.1,0.01 0.1,0.02 0.1,0.02 0.11,0.02 0.1,0.02 0.1,0.03 0.1,0.03 0.1,0.04 0.1,0.04 0.1,0.05 0.09,0.05 0.09,0.06 0.08,0.07 0.08,0.07 0.04,0.04 0.04,0.04 0.03,0.04 0.04,0.05 0.03,0.04 0.03,0.05 0.03,0.05 0.03,0.05 0.03,0.05 0.02,0.06 0.02,0.06 0.02,0.06 0.02,0.06 0.02,0.06 0.01,0.07 0.01,0.07 0.01,0.07 v 0.08 l 0.01,0.07 v 0.08 c 0,1.19 -1.05,1.19 -1.94,1.19 h -11.36 c -7.53,0 -13.06,-8.22 -13.06,-14.14 0,-4.39 2.94,-7.88 7.47,-7.88 l 0.06,1.1 c -2.45,0 -4.44,1.79 -4.44,5.37 0,1.5 0.6,5.59 2.35,8.53 2.09,3.44 5.08,4.13 6.76,4.13 4.19,0 4.6,-3.28 4.6,-4.83 0,-2.34 -1,-6.42 -2.69,-8.97 -1.95,-2.94 -4.64,-4.23 -6.58,-4.23 v 0 l -0.06,-1.1 c 5.89,0 12.51,6.03 12.51,13.71 0,0.84 0,3.23 -1.54,5.42 z"
           inkscape:connector-curvature="0"
           style="fill:#000000;stroke-width:0" /><path
           id="path6389"
           d="m 493.48,410.4 h 0.25 l 0.25,-0.02 0.24,-0.03 0.24,-0.04 0.23,-0.05 0.23,-0.06 0.22,-0.07 0.21,-0.08 0.21,-0.1 0.2,-0.1 0.2,-0.12 0.19,-0.12 0.18,-0.14 0.18,-0.15 0.16,-0.16 0.16,-0.17 0.15,-0.18 0.15,-0.19 0.13,-0.2 0.13,-0.22 0.11,-0.22 0.11,-0.24 0.1,-0.24 0.09,-0.26 0.08,-0.27 0.07,-0.28 0.06,-0.29 0.05,-0.3 0.04,-0.31 0.03,-0.32 0.01,-0.33 0.01,-0.35 c 0,-4.33 -2.52,-5.61 -4.53,-5.61 -1.39,0 -4.47,0.38 -5.92,2.44 1.62,0.06 2.01,1.22 2.01,1.95 0,1.11 -0.84,1.91 -1.92,1.91 -0.97,0 -1.95,-0.59 -1.95,-2.02 0,-3.28 3.62,-5.4 7.84,-5.4 4.84,0 8.19,3.25 8.19,6.73 0,2.72 -2.22,5.44 -6.07,6.24 3.66,1.33 4.99,3.93 4.99,6.06 0,2.75 -3.17,4.81 -7.03,4.81 -3.88,0 -6.83,-1.89 -6.83,-4.67 0,-1.19 0.77,-1.84 1.81,-1.84 1.08,0 1.77,0.79 1.77,1.76 0,1.02 -0.69,1.75 -1.77,1.81 1.22,1.55 3.61,1.93 4.91,1.93 1.56,0 3.76,-0.77 3.76,-3.8 0,-1.47 -0.48,-3.06 -1.39,-4.14 -1.15,-1.33 -2.12,-1.41 -3.87,-1.5 -0.88,-0.08 -0.94,-0.08 -1.11,-0.11 -0.08,0 -0.36,-0.06 -0.36,-0.45 0,-0.49 0.31,-0.49 0.91,-0.49 z"
           inkscape:connector-curvature="0"
           style="fill:#000000;stroke-width:0" /></g>    </g>
    <g
       id="g6526"
       transform="translate(17.307331,-42.512577)"
       inkscape:export-xdpi="97.860001"
       inkscape:export-ydpi="97.860001">
      <g
         word-spacing="normal"
         letter-spacing="normal"
         font-size-adjust="none"
         font-stretch="normal"
         font-weight="normal"
         font-variant="normal"
         font-style="normal"
         stroke-miterlimit="10.433"
         xml:space="preserve"
         transform="matrix(0.40667053,0,0,-0.40667053,-71.167343,388.56272)"
         id="g6524"
         style="font-style:normal;font-variant:normal;font-weight:normal;font-stretch:normal;letter-spacing:normal;word-spacing:normal;text-anchor:start;fill:none;fill-opacity:1;fill-rule:evenodd;stroke:#000000;stroke-linecap:butt;stroke-linejoin:miter;stroke-miterlimit:10.43299961;stroke-dasharray:none;stroke-dashoffset:0;stroke-opacity:1"><path
           id="path6520"
           d="m 481.33,424.78 h 0.07 0.07 0.07 0.08 0.09 l 0.09,0.01 h 0.09 l 0.09,0.01 0.1,0.01 0.1,0.02 0.1,0.02 0.11,0.02 0.1,0.02 0.1,0.03 0.1,0.03 0.1,0.04 0.1,0.04 0.1,0.05 0.09,0.05 0.09,0.06 0.08,0.07 0.08,0.07 0.04,0.04 0.04,0.04 0.03,0.04 0.04,0.05 0.03,0.04 0.03,0.05 0.03,0.05 0.03,0.05 0.03,0.05 0.02,0.06 0.02,0.06 0.02,0.06 0.02,0.06 0.02,0.06 0.01,0.07 0.01,0.07 0.01,0.07 v 0.08 l 0.01,0.07 v 0.08 c 0,1.19 -1.05,1.19 -1.94,1.19 h -11.36 c -7.53,0 -13.06,-8.22 -13.06,-14.14 0,-4.39 2.94,-7.88 7.47,-7.88 l 0.06,1.1 c -2.45,0 -4.44,1.79 -4.44,5.37 0,1.5 0.6,5.59 2.35,8.53 2.09,3.44 5.08,4.13 6.76,4.13 4.19,0 4.6,-3.28 4.6,-4.83 0,-2.34 -1,-6.42 -2.69,-8.97 -1.95,-2.94 -4.64,-4.23 -6.58,-4.23 v 0 l -0.06,-1.1 c 5.89,0 12.51,6.03 12.51,13.71 0,0.84 0,3.23 -1.54,5.42 z"
           inkscape:connector-curvature="0"
           style="fill:#000000;stroke-width:0" /><path
           id="path6522"
           d="m 501.55,405.11 h -1.18 c -0.1,-0.77 -0.46,-2.83 -0.91,-3.18 -0.26,-0.2 -2.95,-0.2 -3.44,-0.2 h -6.42 c 3.66,3.23 4.88,4.2 6.97,5.84 2.58,2.07 4.98,4.22 4.98,7.54 0,4.21 -3.68,6.79 -8.15,6.79 -4.31,0 -7.25,-3.03 -7.25,-6.23 0,-1.78 1.5,-1.96 1.86,-1.96 0.83,0 1.84,0.6 1.84,1.85 0,0.62 -0.25,1.84 -2.06,1.84 1.08,2.47 3.45,3.24 5.09,3.24 3.49,0 5.3,-2.71 5.3,-5.53 0,-3.04 -2.16,-5.44 -3.28,-6.69 l -8.39,-8.3 c -0.36,-0.31 -0.36,-0.39 -0.36,-1.36 h 14.36 z"
           inkscape:connector-curvature="0"
           style="fill:#000000;stroke-width:0" /></g>    </g>
    <g
       id="g223" />
  </g>
</svg>
